<svg width="40" height="40" viewBox="0 0 60 60" fill="none" xmlns="http://www.w3.org/2000/svg">
<path d="M30 60C24.0666 60 18.2664 58.2405 13.3329 54.9441C8.39943 51.6476 4.55426 46.9623 2.28363 41.4805C0.0129988 35.9987 -0.581101 29.9667 0.576455 24.1473C1.73401 18.3279 4.59123 12.9824 8.78681 8.78681C12.9824 4.59123 18.3279 1.73401 24.1473 0.576455C29.9667 -0.581101 35.9987 0.0129988 41.4805 2.28363C46.9623 4.55426 51.6476 8.39943 54.9441 13.3329C58.2405 18.2664 60 24.0666 60 30C59.9919 37.954 56.8286 45.58 51.2043 51.2043C45.58 56.8286 37.954 59.9919 30 60ZM30 3.05486C24.6689 3.05486 19.4576 4.63581 15.0251 7.59775C10.5925 10.5597 7.13794 14.7696 5.09817 19.695C3.05841 24.6204 2.5251 30.0401 3.56569 35.2687C4.60629 40.4972 7.17405 45.2997 10.9442 49.0688C14.7144 52.8379 19.5176 55.4043 24.7465 56.4434C29.9753 57.4825 35.3948 56.9477 40.3197 54.9065C45.2445 52.8654 49.4534 49.4096 52.4141 44.9762C55.3748 40.5429 56.9543 35.3311 56.9528 30C56.9467 22.8542 54.1049 16.003 49.0513 10.9509C43.9978 5.89881 37.1458 3.0589 30 3.05486ZM44.4286 30C44.4286 29.5959 44.2681 29.2084 43.9824 28.9226C43.6967 28.6369 43.3091 28.4764 42.905 28.4764H17.095C16.6909 28.4764 16.3034 28.6369 16.0176 28.9226C15.7319 29.2084 15.5714 29.5959 15.5714 30C15.5714 30.4041 15.7319 30.7916 16.0176 31.0774C16.3034 31.3631 16.6909 31.5236 17.095 31.5236H42.905C43.3091 31.5236 43.6967 31.3631 43.9824 31.0774C44.2681 30.7916 44.4286 30.4041 44.4286 30ZM28.2174 41.1224C28.359 40.9809 28.4714 40.8129 28.5481 40.6279C28.6248 40.4429 28.6642 40.2447 28.6642 40.0444C28.6642 39.8442 28.6248 39.646 28.5481 39.461C28.4714 39.276 28.359 39.108 28.2174 38.9665L19.2509 30L28.2174 21.0335C28.4805 20.7442 28.6223 20.3647 28.6134 19.9737C28.6044 19.5827 28.4455 19.2101 28.1694 18.933C27.8933 18.656 27.5213 18.4957 27.1303 18.4854C26.7393 18.4751 26.3594 18.6155 26.0691 18.8776L16.0208 28.9259C15.7371 29.2113 15.5778 29.5975 15.5778 30C15.5778 30.4025 15.7371 30.7887 16.0208 31.0742L26.0691 41.1224C26.3545 41.4062 26.7407 41.5655 27.1432 41.5655C27.5457 41.5655 27.9319 41.4062 28.2174 41.1224Z" fill="#F15E22"/>
</svg>
