<svg width="30" height="30" viewBox="0 0 30 30" fill="none" xmlns="http://www.w3.org/2000/svg">
<path d="M15 0C12.0333 0 9.13319 0.879735 6.66645 2.52796C4.19971 4.17618 2.27713 6.51886 1.14181 9.25975C0.00649927 12.0006 -0.290551 15.0166 0.288227 17.9264C0.867006 20.8361 2.29562 23.5088 4.3934 25.6066C6.49119 27.7044 9.16393 29.133 12.0736 29.7118C14.9834 30.2906 17.9994 29.9935 20.7403 28.8582C23.4811 27.7229 25.8238 25.8003 27.472 23.3335C29.1203 20.8668 30 17.9667 30 15C29.9954 11.0232 28.4136 7.21051 25.6015 4.39846C22.7895 1.5864 18.9768 0.00458074 15 0ZM15 27.6923C12.4897 27.6923 10.0358 26.9479 7.94854 25.5533C5.8613 24.1586 4.23449 22.1763 3.27384 19.8571C2.31319 17.5379 2.06184 14.9859 2.55158 12.5239C3.04131 10.0618 4.25014 7.80023 6.02519 6.02518C7.80024 4.25013 10.0618 3.04131 12.5239 2.55157C14.9859 2.06184 17.5379 2.31319 19.8571 3.27384C22.1764 4.23449 24.1586 5.86129 25.5533 7.94853C26.9479 10.0358 27.6923 12.4897 27.6923 15C27.6883 18.365 26.3498 21.591 23.9704 23.9704C21.591 26.3498 18.365 27.6883 15 27.6923Z" fill="black"/>
<path d="M20.7109 9.28607C20.4945 9.06976 20.2011 8.94824 19.8951 8.94824C19.5891 8.94824 19.2957 9.06976 19.0793 9.28607L14.9993 13.3661L10.9193 9.28607C10.7017 9.07589 10.4103 8.95959 10.1077 8.96222C9.80519 8.96485 9.51579 9.0862 9.30186 9.30013C9.08793 9.51406 8.96658 9.80346 8.96395 10.106C8.96132 10.4085 9.07762 10.7 9.2878 10.9176L13.3678 14.9976L9.2878 19.0765C9.1776 19.1829 9.08969 19.3102 9.02922 19.451C8.96875 19.5918 8.93692 19.7432 8.93559 19.8964C8.93426 20.0496 8.96345 20.2015 9.02147 20.3433C9.07949 20.4851 9.16516 20.614 9.2735 20.7223C9.38184 20.8306 9.51067 20.9163 9.65247 20.9743C9.79427 21.0323 9.94621 21.0615 10.0994 21.0602C10.2526 21.0589 10.404 21.027 10.5448 20.9666C10.6856 20.9061 10.8129 20.8182 10.9193 20.708L14.9993 16.6291L19.0793 20.708C19.1858 20.8182 19.3131 20.9061 19.4539 20.9666C19.5946 21.027 19.7461 21.0589 19.8993 21.0602C20.0525 21.0615 20.2044 21.0323 20.3462 20.9743C20.488 20.9163 20.6168 20.8306 20.7252 20.7223C20.8335 20.614 20.9192 20.4851 20.9772 20.3433C21.0352 20.2015 21.0644 20.0496 21.0631 19.8964C21.0618 19.7432 21.0299 19.5918 20.9695 19.451C20.909 19.3102 20.8211 19.1829 20.7109 19.0765L16.6309 14.9976L20.7109 10.9176C20.9272 10.7012 21.0487 10.4078 21.0487 10.1018C21.0487 9.79588 20.9272 9.50245 20.7109 9.28607Z" fill="black"/>
</svg>
