<svg width="491" height="17" viewBox="0 0 491 17" fill="none" xmlns="http://www.w3.org/2000/svg">
<path d="M5.80656 3.01562C4.73365 3.01562 3.8899 3.39583 3.27531 4.15625C2.66073 4.91667 2.35344 5.96615 2.35344 7.30469C2.35344 8.70573 2.64771 9.76562 3.23625 10.4844C3.83 11.2031 4.68677 11.5625 5.80656 11.5625C6.29094 11.5625 6.75969 11.5156 7.21281 11.4219C7.66594 11.3229 8.13729 11.1979 8.62688 11.0469V12.6484C7.73104 12.987 6.71542 13.1562 5.58 13.1562C3.90813 13.1562 2.62427 12.651 1.72844 11.6406C0.832606 10.625 0.384689 9.17448 0.384689 7.28906C0.384689 6.10156 0.600835 5.0625 1.03313 4.17188C1.47063 3.28125 2.10084 2.59896 2.92375 2.125C3.74667 1.65104 4.71281 1.41406 5.82219 1.41406C6.98886 1.41406 8.06698 1.65885 9.05656 2.14844L8.38469 3.70312C7.99927 3.52083 7.59042 3.36198 7.15813 3.22656C6.73104 3.08594 6.28052 3.01562 5.80656 3.01562ZM19.1966 8.66406C19.1966 10.0755 18.8346 11.1771 18.1106 11.9688C17.3867 12.7604 16.3789 13.1562 15.0872 13.1562C14.2799 13.1562 13.5664 12.974 12.9466 12.6094C12.3268 12.2448 11.8502 11.7214 11.5169 11.0391C11.1835 10.3568 11.0169 9.5651 11.0169 8.66406C11.0169 7.26302 11.3763 6.16927 12.095 5.38281C12.8138 4.59635 13.8268 4.20312 15.1341 4.20312C16.3841 4.20312 17.3736 4.60677 18.1028 5.41406C18.832 6.21615 19.1966 7.29948 19.1966 8.66406ZM12.9075 8.66406C12.9075 10.6589 13.6445 11.6562 15.1184 11.6562C16.5768 11.6562 17.3059 10.6589 17.3059 8.66406C17.3059 6.6901 16.5716 5.70312 15.1028 5.70312C14.332 5.70312 13.7721 5.95833 13.4231 6.46875C13.0794 6.97917 12.9075 7.71094 12.9075 8.66406ZM26.3366 13.1562C25.2428 13.1562 24.3939 12.763 23.7897 11.9766H23.6803C23.7532 12.7057 23.7897 13.1484 23.7897 13.3047V16.8438H21.9538V4.35938H23.4381C23.4798 4.52083 23.5657 4.90625 23.6959 5.51562H23.7897C24.3626 4.64062 25.222 4.20312 26.3678 4.20312C27.4459 4.20312 28.2845 4.59375 28.8834 5.375C29.4876 6.15625 29.7897 7.2526 29.7897 8.66406C29.7897 10.0755 29.4824 11.1771 28.8678 11.9688C28.2584 12.7604 27.4147 13.1562 26.3366 13.1562ZM25.8913 5.70312C25.1621 5.70312 24.6282 5.91667 24.2897 6.34375C23.9564 6.77083 23.7897 7.45312 23.7897 8.39062V8.66406C23.7897 9.71615 23.9564 10.4792 24.2897 10.9531C24.623 11.4219 25.1673 11.6562 25.9225 11.6562C26.5579 11.6562 27.0475 11.3958 27.3913 10.875C27.735 10.3542 27.9069 9.61198 27.9069 8.64844C27.9069 7.67969 27.735 6.94792 27.3913 6.45312C27.0527 5.95312 26.5527 5.70312 25.8913 5.70312ZM31.25 4.35938H33.25L35.0078 9.25781C35.2734 9.95573 35.4505 10.612 35.5391 11.2266H35.6016C35.6484 10.9401 35.7344 10.5938 35.8594 10.1875C35.9844 9.77604 36.6458 7.83333 37.8438 4.35938H39.8281L36.1328 14.1484C35.4609 15.9453 34.3411 16.8438 32.7734 16.8438C32.3672 16.8438 31.9714 16.7995 31.5859 16.7109V15.2578C31.862 15.3203 32.1771 15.3516 32.5312 15.3516C33.4167 15.3516 34.0391 14.8385 34.3984 13.8125L34.7188 13L31.25 4.35938ZM46.1634 4.20312C46.5332 4.20312 46.8379 4.22917 47.0775 4.28125L46.8978 5.99219C46.6374 5.92969 46.3666 5.89844 46.0853 5.89844C45.3509 5.89844 44.7546 6.13802 44.2963 6.61719C43.8431 7.09635 43.6166 7.71875 43.6166 8.48438V13H41.7806V4.35938H43.2181L43.4603 5.88281H43.5541C43.8405 5.36719 44.2129 4.95833 44.6713 4.65625C45.1348 4.35417 45.6322 4.20312 46.1634 4.20312ZM51.1628 13H49.3269V4.35938H51.1628V13ZM49.2175 2.07031C49.2175 1.74219 49.306 1.48958 49.4831 1.3125C49.6654 1.13542 49.9232 1.04688 50.2566 1.04688C50.5795 1.04688 50.8295 1.13542 51.0066 1.3125C51.1889 1.48958 51.28 1.74219 51.28 2.07031C51.28 2.38281 51.1889 2.63021 51.0066 2.8125C50.8295 2.98958 50.5795 3.07812 50.2566 3.07812C49.9232 3.07812 49.6654 2.98958 49.4831 2.8125C49.306 2.63021 49.2175 2.38281 49.2175 2.07031ZM61.7325 4.35938V5.36719L60.2559 5.64062C60.3914 5.82292 60.5033 6.04688 60.5919 6.3125C60.6804 6.57812 60.7247 6.85938 60.7247 7.15625C60.7247 8.04688 60.4174 8.7474 59.8028 9.25781C59.1882 9.76823 58.3419 10.0234 57.2638 10.0234C56.9877 10.0234 56.7377 10.0026 56.5138 9.96094C56.1179 10.2057 55.92 10.4922 55.92 10.8203C55.92 11.0182 56.0111 11.1667 56.1934 11.2656C56.3809 11.3646 56.7221 11.4141 57.2169 11.4141H58.7247C59.6778 11.4141 60.4018 11.6172 60.8966 12.0234C61.3914 12.4297 61.6388 13.0156 61.6388 13.7812C61.6388 14.7604 61.2351 15.5156 60.4278 16.0469C59.6205 16.5781 58.4539 16.8438 56.9278 16.8438C55.7507 16.8438 54.8523 16.6354 54.2325 16.2188C53.6127 15.8021 53.3028 15.2083 53.3028 14.4375C53.3028 13.9062 53.4695 13.4583 53.8028 13.0938C54.1414 12.7344 54.6127 12.4844 55.2169 12.3438C54.9721 12.2396 54.769 12.0729 54.6075 11.8438C54.4513 11.6094 54.3731 11.3646 54.3731 11.1094C54.3731 10.7865 54.4643 10.513 54.6466 10.2891C54.8289 10.0651 55.0997 9.84375 55.4591 9.625C55.0111 9.43229 54.6466 9.11979 54.3653 8.6875C54.0893 8.25 53.9513 7.73958 53.9513 7.15625C53.9513 6.21875 54.2455 5.49219 54.8341 4.97656C55.4278 4.46094 56.2716 4.20312 57.3653 4.20312C57.6101 4.20312 57.8653 4.22135 58.1309 4.25781C58.4018 4.28906 58.6049 4.32292 58.7403 4.35938H61.7325ZM54.9434 14.3438C54.9434 14.7396 55.1205 15.0443 55.4747 15.2578C55.8341 15.4714 56.3367 15.5781 56.9825 15.5781C57.9825 15.5781 58.7273 15.4349 59.2169 15.1484C59.7065 14.862 59.9513 14.4818 59.9513 14.0078C59.9513 13.6328 59.8158 13.3646 59.545 13.2031C59.2794 13.0469 58.782 12.9688 58.0528 12.9688H56.6622C56.1361 12.9688 55.7169 13.0911 55.4044 13.3359C55.0971 13.5859 54.9434 13.9219 54.9434 14.3438ZM55.7325 7.15625C55.7325 7.69792 55.8705 8.11458 56.1466 8.40625C56.4278 8.69792 56.8289 8.84375 57.3497 8.84375C58.4122 8.84375 58.9434 8.27604 58.9434 7.14062C58.9434 6.57812 58.8106 6.14583 58.545 5.84375C58.2846 5.53646 57.8861 5.38281 57.3497 5.38281C56.8184 5.38281 56.4148 5.53385 56.1388 5.83594C55.8679 6.13802 55.7325 6.57812 55.7325 7.15625ZM71.5834 13H69.7397V7.6875C69.7397 7.02083 69.6043 6.52344 69.3334 6.19531C69.0678 5.86719 68.6433 5.70312 68.06 5.70312C67.2892 5.70312 66.7215 5.9349 66.3569 6.39844C65.9975 6.85677 65.8178 7.6276 65.8178 8.71094V13H63.9819V0.84375H65.8178V3.92969C65.8178 4.42448 65.7866 4.95312 65.7241 5.51562H65.8413C66.0913 5.09896 66.4376 4.77604 66.8803 4.54688C67.3282 4.31771 67.8491 4.20312 68.4428 4.20312C70.5366 4.20312 71.5834 5.25781 71.5834 7.36719V13ZM77.9969 11.6719C78.4448 11.6719 78.8927 11.6016 79.3406 11.4609V12.8438C79.1375 12.9323 78.8745 13.0052 78.5516 13.0625C78.2339 13.125 77.9031 13.1562 77.5594 13.1562C75.8198 13.1562 74.95 12.2396 74.95 10.4062V5.75H73.7703V4.9375L75.0359 4.26562L75.6609 2.4375H76.7938V4.35938H79.2547V5.75H76.7938V10.375C76.7938 10.8177 76.9031 11.1458 77.1219 11.3594C77.3458 11.5677 77.6375 11.6719 77.9969 11.6719ZM92.1753 4.92188C91.5972 4.92188 91.1519 5.13281 90.8394 5.55469C90.5269 5.97135 90.3706 6.54948 90.3706 7.28906C90.3706 8.05469 90.5113 8.64323 90.7925 9.05469C91.0738 9.46615 91.5347 9.67188 92.1753 9.67188C92.4618 9.67188 92.7691 9.63281 93.0972 9.55469C93.4253 9.47656 93.7092 9.38281 93.9488 9.27344V10.5078C93.3498 10.7734 92.7378 10.9062 92.1128 10.9062C91.0868 10.9062 90.2899 10.5938 89.7222 9.96875C89.1597 9.33854 88.8784 8.44531 88.8784 7.28906C88.8784 6.17448 89.1649 5.29688 89.7378 4.65625C90.3107 4.01042 91.1076 3.6875 92.1284 3.6875C92.8472 3.6875 93.5607 3.86979 94.2691 4.23438L93.7613 5.35156C93.2092 5.0651 92.6805 4.92188 92.1753 4.92188ZM85.98 7.28906C85.98 6.2474 86.2404 5.27083 86.7613 4.35938C87.2821 3.44792 87.9982 2.72917 88.9097 2.20312C89.8211 1.67708 90.8029 1.41406 91.855 1.41406C92.8967 1.41406 93.8732 1.67448 94.7847 2.19531C95.6961 2.71615 96.4149 3.43229 96.9409 4.34375C97.467 5.25521 97.73 6.23698 97.73 7.28906C97.73 8.3151 97.4774 9.27865 96.9722 10.1797C96.467 11.0807 95.7586 11.8021 94.8472 12.3438C93.9357 12.8854 92.9383 13.1562 91.855 13.1562C90.7769 13.1562 89.7821 12.888 88.8706 12.3516C87.9592 11.8099 87.2482 11.0885 86.7378 10.1875C86.2326 9.28646 85.98 8.32031 85.98 7.28906ZM86.9409 7.28906C86.9409 8.17448 87.1597 8.9974 87.5972 9.75781C88.0399 10.513 88.6415 11.1094 89.4019 11.5469C90.1623 11.9844 90.98 12.2031 91.855 12.2031C92.7404 12.2031 93.5633 11.9818 94.3238 11.5391C95.0842 11.0911 95.6805 10.4922 96.1128 9.74219C96.5503 8.98698 96.7691 8.16927 96.7691 7.28906C96.7691 6.41406 96.5477 5.59635 96.105 4.83594C95.6675 4.07031 95.0659 3.46875 94.3003 3.03125C93.5399 2.59375 92.7248 2.375 91.855 2.375C90.98 2.375 90.1649 2.59115 89.4097 3.02344C88.6597 3.45573 88.0607 4.05208 87.6128 4.8125C87.1649 5.57292 86.9409 6.39844 86.9409 7.28906ZM112.393 13H104.651V11.6094L107.596 8.64844C108.466 7.75781 109.041 7.1276 109.323 6.75781C109.609 6.38281 109.817 6.03125 109.948 5.70312C110.078 5.375 110.143 5.02344 110.143 4.64844C110.143 4.13281 109.987 3.72656 109.674 3.42969C109.367 3.13281 108.94 2.98438 108.393 2.98438C107.955 2.98438 107.531 3.0651 107.119 3.22656C106.713 3.38802 106.242 3.67969 105.705 4.10156L104.713 2.89062C105.349 2.35417 105.966 1.97396 106.565 1.75C107.164 1.52604 107.802 1.41406 108.479 1.41406C109.541 1.41406 110.393 1.69271 111.033 2.25C111.674 2.80208 111.994 3.54688 111.994 4.48438C111.994 5 111.901 5.48958 111.713 5.95312C111.531 6.41667 111.247 6.89583 110.862 7.39062C110.481 7.88021 109.846 8.54427 108.955 9.38281L106.971 11.3047V11.3828H112.393V13ZM122.173 7.28906C122.173 9.27344 121.853 10.7474 121.213 11.7109C120.577 12.6745 119.603 13.1562 118.291 13.1562C117.02 13.1562 116.056 12.6589 115.4 11.6641C114.744 10.6693 114.416 9.21094 114.416 7.28906C114.416 5.27344 114.733 3.78906 115.369 2.83594C116.009 1.8776 116.983 1.39844 118.291 1.39844C119.567 1.39844 120.533 1.89844 121.189 2.89844C121.845 3.89844 122.173 5.36198 122.173 7.28906ZM116.275 7.28906C116.275 8.84635 116.434 9.95833 116.752 10.625C117.074 11.2917 117.588 11.625 118.291 11.625C118.994 11.625 119.507 11.2865 119.83 10.6094C120.158 9.93229 120.322 8.82552 120.322 7.28906C120.322 5.75781 120.158 4.65104 119.83 3.96875C119.507 3.28125 118.994 2.9375 118.291 2.9375C117.588 2.9375 117.074 3.27344 116.752 3.94531C116.434 4.61719 116.275 5.73177 116.275 7.28906ZM131.954 13H124.212V11.6094L127.157 8.64844C128.027 7.75781 128.603 7.1276 128.884 6.75781C129.17 6.38281 129.379 6.03125 129.509 5.70312C129.639 5.375 129.704 5.02344 129.704 4.64844C129.704 4.13281 129.548 3.72656 129.235 3.42969C128.928 3.13281 128.501 2.98438 127.954 2.98438C127.517 2.98438 127.092 3.0651 126.681 3.22656C126.274 3.38802 125.803 3.67969 125.267 4.10156L124.274 2.89062C124.91 2.35417 125.527 1.97396 126.126 1.75C126.725 1.52604 127.363 1.41406 128.04 1.41406C129.103 1.41406 129.954 1.69271 130.595 2.25C131.235 2.80208 131.556 3.54688 131.556 4.48438C131.556 5 131.462 5.48958 131.274 5.95312C131.092 6.41667 130.808 6.89583 130.423 7.39062C130.043 7.88021 129.407 8.54427 128.517 9.38281L126.532 11.3047V11.3828H131.954V13ZM139.383 13H137.547V5.625C137.547 4.74479 137.568 4.04688 137.61 3.53125C137.49 3.65625 137.341 3.79427 137.164 3.94531C136.993 4.09635 136.409 4.57552 135.414 5.38281L134.493 4.21875L137.852 1.57812H139.383V13ZM156.46 13L155.319 9.82812H150.952L149.835 13H147.866L152.14 1.53125H154.171L158.444 13H156.46ZM154.827 8.21875L153.757 5.10938C153.679 4.90104 153.569 4.57292 153.429 4.125C153.293 3.67708 153.2 3.34896 153.148 3.14062C153.007 3.78125 152.801 4.48177 152.53 5.24219L151.499 8.21875H154.827ZM162.233 13H160.397V0.84375H162.233V13ZM167.342 13H165.506V0.84375H167.342V13ZM177.473 6.89062H178.77C179.64 6.89062 180.27 6.72917 180.661 6.40625C181.051 6.08333 181.247 5.60417 181.247 4.96875C181.247 4.32292 181.036 3.85938 180.614 3.57812C180.192 3.29688 179.556 3.15625 178.708 3.15625H177.473V6.89062ZM177.473 8.4375V13H175.606V1.57812H178.833C180.306 1.57812 181.398 1.85417 182.106 2.40625C182.814 2.95833 183.168 3.79167 183.168 4.90625C183.168 6.32812 182.429 7.34115 180.95 7.94531L184.176 13H182.051L179.317 8.4375H177.473ZM188.121 13H186.285V4.35938H188.121V13ZM186.176 2.07031C186.176 1.74219 186.264 1.48958 186.441 1.3125C186.624 1.13542 186.881 1.04688 187.215 1.04688C187.538 1.04688 187.788 1.13542 187.965 1.3125C188.147 1.48958 188.238 1.74219 188.238 2.07031C188.238 2.38281 188.147 2.63021 187.965 2.8125C187.788 2.98958 187.538 3.07812 187.215 3.07812C186.881 3.07812 186.624 2.98958 186.441 2.8125C186.264 2.63021 186.176 2.38281 186.176 2.07031ZM198.691 4.35938V5.36719L197.214 5.64062C197.349 5.82292 197.461 6.04688 197.55 6.3125C197.639 6.57812 197.683 6.85938 197.683 7.15625C197.683 8.04688 197.376 8.7474 196.761 9.25781C196.146 9.76823 195.3 10.0234 194.222 10.0234C193.946 10.0234 193.696 10.0026 193.472 9.96094C193.076 10.2057 192.878 10.4922 192.878 10.8203C192.878 11.0182 192.969 11.1667 193.152 11.2656C193.339 11.3646 193.68 11.4141 194.175 11.4141H195.683C196.636 11.4141 197.36 11.6172 197.855 12.0234C198.349 12.4297 198.597 13.0156 198.597 13.7812C198.597 14.7604 198.193 15.5156 197.386 16.0469C196.579 16.5781 195.412 16.8438 193.886 16.8438C192.709 16.8438 191.81 16.6354 191.191 16.2188C190.571 15.8021 190.261 15.2083 190.261 14.4375C190.261 13.9062 190.428 13.4583 190.761 13.0938C191.099 12.7344 191.571 12.4844 192.175 12.3438C191.93 12.2396 191.727 12.0729 191.566 11.8438C191.409 11.6094 191.331 11.3646 191.331 11.1094C191.331 10.7865 191.422 10.513 191.605 10.2891C191.787 10.0651 192.058 9.84375 192.417 9.625C191.969 9.43229 191.605 9.11979 191.323 8.6875C191.047 8.25 190.909 7.73958 190.909 7.15625C190.909 6.21875 191.204 5.49219 191.792 4.97656C192.386 4.46094 193.23 4.20312 194.323 4.20312C194.568 4.20312 194.823 4.22135 195.089 4.25781C195.36 4.28906 195.563 4.32292 195.698 4.35938H198.691ZM191.902 14.3438C191.902 14.7396 192.079 15.0443 192.433 15.2578C192.792 15.4714 193.295 15.5781 193.941 15.5781C194.941 15.5781 195.685 15.4349 196.175 15.1484C196.665 14.862 196.909 14.4818 196.909 14.0078C196.909 13.6328 196.774 13.3646 196.503 13.2031C196.238 13.0469 195.74 12.9688 195.011 12.9688H193.62C193.094 12.9688 192.675 13.0911 192.363 13.3359C192.055 13.5859 191.902 13.9219 191.902 14.3438ZM192.691 7.15625C192.691 7.69792 192.829 8.11458 193.105 8.40625C193.386 8.69792 193.787 8.84375 194.308 8.84375C195.37 8.84375 195.902 8.27604 195.902 7.14062C195.902 6.57812 195.769 6.14583 195.503 5.84375C195.243 5.53646 194.844 5.38281 194.308 5.38281C193.777 5.38281 193.373 5.53385 193.097 5.83594C192.826 6.13802 192.691 6.57812 192.691 7.15625ZM208.542 13H206.698V7.6875C206.698 7.02083 206.562 6.52344 206.292 6.19531C206.026 5.86719 205.601 5.70312 205.018 5.70312C204.247 5.70312 203.68 5.9349 203.315 6.39844C202.956 6.85677 202.776 7.6276 202.776 8.71094V13H200.94V0.84375H202.776V3.92969C202.776 4.42448 202.745 4.95312 202.682 5.51562H202.799C203.049 5.09896 203.396 4.77604 203.838 4.54688C204.286 4.31771 204.807 4.20312 205.401 4.20312C207.495 4.20312 208.542 5.25781 208.542 7.36719V13ZM214.955 11.6719C215.403 11.6719 215.851 11.6016 216.299 11.4609V12.8438C216.096 12.9323 215.833 13.0052 215.51 13.0625C215.192 13.125 214.861 13.1562 214.518 13.1562C212.778 13.1562 211.908 12.2396 211.908 10.4062V5.75H210.728V4.9375L211.994 4.26562L212.619 2.4375H213.752V4.35938H216.213V5.75H213.752V10.375C213.752 10.8177 213.861 11.1458 214.08 11.3594C214.304 11.5677 214.596 11.6719 214.955 11.6719ZM224.478 10.5391C224.478 11.3828 224.171 12.0312 223.556 12.4844C222.941 12.9323 222.061 13.1562 220.915 13.1562C219.764 13.1562 218.84 12.9818 218.142 12.6328V11.0469C219.158 11.5156 220.103 11.75 220.978 11.75C222.108 11.75 222.673 11.4089 222.673 10.7266C222.673 10.5078 222.611 10.3255 222.486 10.1797C222.361 10.0339 222.155 9.88281 221.868 9.72656C221.582 9.57031 221.184 9.39323 220.673 9.19531C219.678 8.8099 219.004 8.42448 218.65 8.03906C218.301 7.65365 218.126 7.15365 218.126 6.53906C218.126 5.79948 218.423 5.22656 219.017 4.82031C219.616 4.40885 220.428 4.20312 221.454 4.20312C222.47 4.20312 223.431 4.40885 224.337 4.82031L223.743 6.20312C222.811 5.81771 222.027 5.625 221.392 5.625C220.423 5.625 219.939 5.90104 219.939 6.45312C219.939 6.72396 220.064 6.95312 220.314 7.14062C220.569 7.32812 221.121 7.58594 221.97 7.91406C222.684 8.1901 223.202 8.44271 223.525 8.67188C223.848 8.90104 224.087 9.16667 224.243 9.46875C224.4 9.76562 224.478 10.1224 224.478 10.5391ZM233.969 6.89062H235.266C236.135 6.89062 236.766 6.72917 237.156 6.40625C237.547 6.08333 237.742 5.60417 237.742 4.96875C237.742 4.32292 237.531 3.85938 237.109 3.57812C236.688 3.29688 236.052 3.15625 235.203 3.15625H233.969V6.89062ZM233.969 8.4375V13H232.102V1.57812H235.328C236.802 1.57812 237.893 1.85417 238.602 2.40625C239.31 2.95833 239.664 3.79167 239.664 4.90625C239.664 6.32812 238.924 7.34115 237.445 7.94531L240.672 13H238.547L235.812 8.4375H233.969ZM246.554 13.1562C245.21 13.1562 244.158 12.7656 243.398 11.9844C242.643 11.1979 242.265 10.1172 242.265 8.74219C242.265 7.33073 242.617 6.22135 243.32 5.41406C244.023 4.60677 244.989 4.20312 246.218 4.20312C247.359 4.20312 248.26 4.54948 248.921 5.24219C249.583 5.9349 249.913 6.88802 249.913 8.10156V9.09375H244.156C244.182 9.93229 244.408 10.5781 244.835 11.0312C245.262 11.4792 245.864 11.7031 246.64 11.7031C247.15 11.7031 247.624 11.6562 248.062 11.5625C248.505 11.4635 248.979 11.3021 249.484 11.0781V12.5703C249.036 12.7839 248.583 12.9349 248.124 13.0234C247.666 13.112 247.143 13.1562 246.554 13.1562ZM246.218 5.59375C245.635 5.59375 245.166 5.77865 244.812 6.14844C244.463 6.51823 244.255 7.05729 244.187 7.76562H248.109C248.098 7.05208 247.926 6.51302 247.593 6.14844C247.26 5.77865 246.801 5.59375 246.218 5.59375ZM258.444 10.5391C258.444 11.3828 258.137 12.0312 257.522 12.4844C256.908 12.9323 256.027 13.1562 254.882 13.1562C253.731 13.1562 252.806 12.9818 252.108 12.6328V11.0469C253.124 11.5156 254.069 11.75 254.944 11.75C256.074 11.75 256.639 11.4089 256.639 10.7266C256.639 10.5078 256.577 10.3255 256.452 10.1797C256.327 10.0339 256.121 9.88281 255.835 9.72656C255.548 9.57031 255.15 9.39323 254.639 9.19531C253.645 8.8099 252.97 8.42448 252.616 8.03906C252.267 7.65365 252.092 7.15365 252.092 6.53906C252.092 5.79948 252.389 5.22656 252.983 4.82031C253.582 4.40885 254.395 4.20312 255.421 4.20312C256.436 4.20312 257.397 4.40885 258.303 4.82031L257.71 6.20312C256.777 5.81771 255.994 5.625 255.358 5.625C254.389 5.625 253.905 5.90104 253.905 6.45312C253.905 6.72396 254.03 6.95312 254.28 7.14062C254.535 7.32812 255.087 7.58594 255.936 7.91406C256.65 8.1901 257.168 8.44271 257.491 8.67188C257.814 8.90104 258.053 9.16667 258.21 9.46875C258.366 9.76562 258.444 10.1224 258.444 10.5391ZM264.85 13.1562C263.506 13.1562 262.454 12.7656 261.693 11.9844C260.938 11.1979 260.561 10.1172 260.561 8.74219C260.561 7.33073 260.912 6.22135 261.615 5.41406C262.318 4.60677 263.285 4.20312 264.514 4.20312C265.654 4.20312 266.555 4.54948 267.217 5.24219C267.878 5.9349 268.209 6.88802 268.209 8.10156V9.09375H262.451C262.477 9.93229 262.704 10.5781 263.131 11.0312C263.558 11.4792 264.16 11.7031 264.936 11.7031C265.446 11.7031 265.92 11.6562 266.357 11.5625C266.8 11.4635 267.274 11.3021 267.779 11.0781V12.5703C267.331 12.7839 266.878 12.9349 266.42 13.0234C265.962 13.112 265.438 13.1562 264.85 13.1562ZM264.514 5.59375C263.93 5.59375 263.462 5.77865 263.107 6.14844C262.759 6.51823 262.55 7.05729 262.482 7.76562H266.404C266.394 7.05208 266.222 6.51302 265.889 6.14844C265.555 5.77865 265.097 5.59375 264.514 5.59375ZM275.318 4.20312C275.688 4.20312 275.992 4.22917 276.232 4.28125L276.052 5.99219C275.792 5.92969 275.521 5.89844 275.24 5.89844C274.505 5.89844 273.909 6.13802 273.451 6.61719C272.997 7.09635 272.771 7.71875 272.771 8.48438V13H270.935V4.35938H272.372L272.615 5.88281H272.708C272.995 5.36719 273.367 4.95833 273.826 4.65625C274.289 4.35417 274.787 4.20312 275.318 4.20312ZM280.45 13L277.169 4.35938H279.106L280.864 9.38281C281.166 10.2266 281.348 10.9089 281.411 11.4297H281.473C281.52 11.0547 281.703 10.3724 282.02 9.38281L283.778 4.35938H285.731L282.434 13H280.45ZM291.457 13.1562C290.113 13.1562 289.061 12.7656 288.301 11.9844C287.546 11.1979 287.168 10.1172 287.168 8.74219C287.168 7.33073 287.52 6.22135 288.223 5.41406C288.926 4.60677 289.892 4.20312 291.121 4.20312C292.262 4.20312 293.163 4.54948 293.824 5.24219C294.486 5.9349 294.817 6.88802 294.817 8.10156V9.09375H289.059C289.085 9.93229 289.311 10.5781 289.738 11.0312C290.166 11.4792 290.767 11.7031 291.543 11.7031C292.054 11.7031 292.528 11.6562 292.965 11.5625C293.408 11.4635 293.882 11.3021 294.387 11.0781V12.5703C293.939 12.7839 293.486 12.9349 293.028 13.0234C292.569 13.112 292.046 13.1562 291.457 13.1562ZM291.121 5.59375C290.538 5.59375 290.069 5.77865 289.715 6.14844C289.366 6.51823 289.158 7.05729 289.09 7.76562H293.012C293.001 7.05208 292.83 6.51302 292.496 6.14844C292.163 5.77865 291.705 5.59375 291.121 5.59375ZM300.457 13.1562C299.378 13.1562 298.537 12.7656 297.933 11.9844C297.329 11.2031 297.027 10.1068 297.027 8.69531C297.027 7.27865 297.332 6.17708 297.941 5.39062C298.556 4.59896 299.404 4.20312 300.488 4.20312C301.623 4.20312 302.488 4.6224 303.082 5.46094H303.175C303.087 4.84115 303.042 4.35156 303.042 3.99219V0.84375H304.886V13H303.449L303.128 11.8672H303.042C302.454 12.7266 301.592 13.1562 300.457 13.1562ZM300.949 11.6719C301.704 11.6719 302.253 11.4609 302.597 11.0391C302.941 10.612 303.118 9.92188 303.128 8.96875V8.71094C303.128 7.6224 302.951 6.84896 302.597 6.39062C302.243 5.93229 301.688 5.70312 300.933 5.70312C300.287 5.70312 299.79 5.96615 299.441 6.49219C299.092 7.01302 298.917 7.75781 298.917 8.72656C298.917 9.6849 299.087 10.4167 299.425 10.9219C299.764 11.4219 300.272 11.6719 300.949 11.6719ZM307.878 12.0234C307.878 11.6432 307.977 11.3516 308.175 11.1484C308.373 10.9453 308.659 10.8438 309.034 10.8438C309.414 10.8438 309.703 10.9505 309.901 11.1641C310.099 11.3724 310.198 11.6589 310.198 12.0234C310.198 12.3932 310.097 12.6875 309.893 12.9062C309.696 13.1198 309.409 13.2266 309.034 13.2266C308.659 13.2266 308.373 13.1198 308.175 12.9062C307.977 12.6927 307.878 12.3984 307.878 12.0234ZM325.752 5.03125C325.752 6.22396 325.361 7.13802 324.58 7.77344C323.798 8.40885 322.686 8.72656 321.244 8.72656H320.056V13H318.189V1.57812H321.478C322.905 1.57812 323.973 1.86979 324.681 2.45312C325.395 3.03646 325.752 3.89583 325.752 5.03125ZM320.056 7.15625H321.048C322.007 7.15625 322.71 6.98958 323.158 6.65625C323.606 6.32292 323.83 5.80208 323.83 5.09375C323.83 4.4375 323.629 3.94792 323.228 3.625C322.827 3.30208 322.202 3.14062 321.353 3.14062H320.056V7.15625ZM336.142 8.66406C336.142 10.0755 335.78 11.1771 335.056 11.9688C334.332 12.7604 333.324 13.1562 332.032 13.1562C331.225 13.1562 330.511 12.974 329.892 12.6094C329.272 12.2448 328.795 11.7214 328.462 11.0391C328.129 10.3568 327.962 9.5651 327.962 8.66406C327.962 7.26302 328.321 6.16927 329.04 5.38281C329.759 4.59635 330.772 4.20312 332.079 4.20312C333.329 4.20312 334.319 4.60677 335.048 5.41406C335.777 6.21615 336.142 7.29948 336.142 8.66406ZM329.852 8.66406C329.852 10.6589 330.589 11.6562 332.063 11.6562C333.522 11.6562 334.251 10.6589 334.251 8.66406C334.251 6.6901 333.517 5.70312 332.048 5.70312C331.277 5.70312 330.717 5.95833 330.368 6.46875C330.024 6.97917 329.852 7.71094 329.852 8.66406ZM345.985 13L344.867 8.96875C344.732 8.54167 344.487 7.54948 344.133 5.99219H344.063C343.761 7.39844 343.521 8.39583 343.344 8.98438L342.196 13H340.164L337.742 4.35938H339.617L340.719 8.61719C340.969 9.66927 341.146 10.5703 341.25 11.3203H341.297C341.349 10.9401 341.427 10.5052 341.532 10.0156C341.641 9.52083 341.735 9.15104 341.813 8.90625L343.125 4.35938H345.141L346.414 8.90625C346.492 9.16146 346.589 9.55208 346.703 10.0781C346.823 10.6042 346.894 11.013 346.914 11.3047H346.977C347.055 10.6641 347.237 9.76823 347.524 8.61719L348.641 4.35938H350.485L348.047 13H345.985ZM356.39 13.1562C355.047 13.1562 353.994 12.7656 353.234 11.9844C352.479 11.1979 352.101 10.1172 352.101 8.74219C352.101 7.33073 352.453 6.22135 353.156 5.41406C353.859 4.60677 354.825 4.20312 356.054 4.20312C357.195 4.20312 358.096 4.54948 358.758 5.24219C359.419 5.9349 359.75 6.88802 359.75 8.10156V9.09375H353.992C354.018 9.93229 354.244 10.5781 354.672 11.0312C355.099 11.4792 355.7 11.7031 356.476 11.7031C356.987 11.7031 357.461 11.6562 357.898 11.5625C358.341 11.4635 358.815 11.3021 359.32 11.0781V12.5703C358.872 12.7839 358.419 12.9349 357.961 13.0234C357.502 13.112 356.979 13.1562 356.39 13.1562ZM356.054 5.59375C355.471 5.59375 355.002 5.77865 354.648 6.14844C354.299 6.51823 354.091 7.05729 354.023 7.76562H357.945C357.935 7.05208 357.763 6.51302 357.429 6.14844C357.096 5.77865 356.638 5.59375 356.054 5.59375ZM366.858 4.20312C367.228 4.20312 367.533 4.22917 367.773 4.28125L367.593 5.99219C367.332 5.92969 367.062 5.89844 366.78 5.89844C366.046 5.89844 365.45 6.13802 364.991 6.61719C364.538 7.09635 364.312 7.71875 364.312 8.48438V13H362.476V4.35938H363.913L364.155 5.88281H364.249C364.536 5.36719 364.908 4.95833 365.366 4.65625C365.83 4.35417 366.327 4.20312 366.858 4.20312ZM373.795 13.1562C372.452 13.1562 371.399 12.7656 370.639 11.9844C369.884 11.1979 369.506 10.1172 369.506 8.74219C369.506 7.33073 369.858 6.22135 370.561 5.41406C371.264 4.60677 372.23 4.20312 373.459 4.20312C374.6 4.20312 375.501 4.54948 376.162 5.24219C376.824 5.9349 377.155 6.88802 377.155 8.10156V9.09375H371.397C371.423 9.93229 371.649 10.5781 372.077 11.0312C372.504 11.4792 373.105 11.7031 373.881 11.7031C374.392 11.7031 374.866 11.6562 375.303 11.5625C375.746 11.4635 376.22 11.3021 376.725 11.0781V12.5703C376.277 12.7839 375.824 12.9349 375.366 13.0234C374.907 13.112 374.384 13.1562 373.795 13.1562ZM373.459 5.59375C372.876 5.59375 372.407 5.77865 372.053 6.14844C371.704 6.51823 371.496 7.05729 371.428 7.76562H375.35C375.34 7.05208 375.168 6.51302 374.834 6.14844C374.501 5.77865 374.043 5.59375 373.459 5.59375ZM382.795 13.1562C381.717 13.1562 380.875 12.7656 380.271 11.9844C379.667 11.2031 379.365 10.1068 379.365 8.69531C379.365 7.27865 379.67 6.17708 380.279 5.39062C380.894 4.59896 381.743 4.20312 382.826 4.20312C383.961 4.20312 384.826 4.6224 385.42 5.46094H385.513C385.425 4.84115 385.381 4.35156 385.381 3.99219V0.84375H387.224V13H385.787L385.467 11.8672H385.381C384.792 12.7266 383.93 13.1562 382.795 13.1562ZM383.287 11.6719C384.042 11.6719 384.592 11.4609 384.935 11.0391C385.279 10.612 385.456 9.92188 385.467 8.96875V8.71094C385.467 7.6224 385.289 6.84896 384.935 6.39062C384.581 5.93229 384.026 5.70312 383.271 5.70312C382.625 5.70312 382.128 5.96615 381.779 6.49219C381.43 7.01302 381.256 7.75781 381.256 8.72656C381.256 9.6849 381.425 10.4167 381.763 10.9219C382.102 11.4219 382.61 11.6719 383.287 11.6719ZM395.481 1.57812H398.872C400.444 1.57812 401.58 1.80729 402.278 2.26562C402.981 2.72396 403.333 3.44792 403.333 4.4375C403.333 5.10417 403.161 5.65885 402.817 6.10156C402.473 6.54427 401.978 6.82292 401.333 6.9375V7.01562C402.135 7.16667 402.723 7.46615 403.098 7.91406C403.478 8.35677 403.668 8.95833 403.668 9.71875C403.668 10.7448 403.309 11.5495 402.59 12.1328C401.877 12.7109 400.882 13 399.606 13H395.481V1.57812ZM397.348 6.29688H399.145C399.926 6.29688 400.497 6.17448 400.856 5.92969C401.215 5.67969 401.395 5.25781 401.395 4.66406C401.395 4.1276 401.2 3.73958 400.809 3.5C400.424 3.26042 399.809 3.14062 398.965 3.14062H397.348V6.29688ZM397.348 7.8125V11.4297H399.333C400.114 11.4297 400.702 11.2812 401.098 10.9844C401.499 10.6823 401.7 10.2083 401.7 9.5625C401.7 8.96875 401.497 8.52865 401.09 8.24219C400.684 7.95573 400.067 7.8125 399.239 7.8125H397.348ZM405.176 4.35938H407.176L408.933 9.25781C409.199 9.95573 409.376 10.612 409.465 11.2266H409.527C409.574 10.9401 409.66 10.5938 409.785 10.1875C409.91 9.77604 410.571 7.83333 411.769 4.35938H413.754L410.058 14.1484C409.387 15.9453 408.267 16.8438 406.699 16.8438C406.293 16.8438 405.897 16.7995 405.512 16.7109V15.2578C405.788 15.3203 406.103 15.3516 406.457 15.3516C407.342 15.3516 407.965 14.8385 408.324 13.8125L408.644 13L405.176 4.35938ZM425.557 3.01562C424.484 3.01562 423.641 3.39583 423.026 4.15625C422.411 4.91667 422.104 5.96615 422.104 7.30469C422.104 8.70573 422.398 9.76562 422.987 10.4844C423.581 11.2031 424.437 11.5625 425.557 11.5625C426.042 11.5625 426.51 11.5156 426.963 11.4219C427.417 11.3229 427.888 11.1979 428.378 11.0469V12.6484C427.482 12.987 426.466 13.1562 425.331 13.1562C423.659 13.1562 422.375 12.651 421.479 11.6406C420.583 10.625 420.135 9.17448 420.135 7.28906C420.135 6.10156 420.351 5.0625 420.784 4.17188C421.221 3.28125 421.851 2.59896 422.674 2.125C423.497 1.65104 424.463 1.41406 425.573 1.41406C426.739 1.41406 427.818 1.65885 428.807 2.14844L428.135 3.70312C427.75 3.52083 427.341 3.36198 426.909 3.22656C426.482 3.08594 426.031 3.01562 425.557 3.01562ZM438.947 8.66406C438.947 10.0755 438.585 11.1771 437.861 11.9688C437.137 12.7604 436.129 13.1562 434.838 13.1562C434.031 13.1562 433.317 12.974 432.697 12.6094C432.077 12.2448 431.601 11.7214 431.268 11.0391C430.934 10.3568 430.768 9.5651 430.768 8.66406C430.768 7.26302 431.127 6.16927 431.846 5.38281C432.564 4.59635 433.577 4.20312 434.885 4.20312C436.135 4.20312 437.124 4.60677 437.853 5.41406C438.583 6.21615 438.947 7.29948 438.947 8.66406ZM432.658 8.66406C432.658 10.6589 433.395 11.6562 434.869 11.6562C436.327 11.6562 437.057 10.6589 437.057 8.66406C437.057 6.6901 436.322 5.70312 434.853 5.70312C434.083 5.70312 433.523 5.95833 433.174 6.46875C432.83 6.97917 432.658 7.71094 432.658 8.66406ZM444.618 13.1562C443.54 13.1562 442.699 12.7656 442.095 11.9844C441.491 11.2031 441.189 10.1068 441.189 8.69531C441.189 7.27865 441.493 6.17708 442.103 5.39062C442.717 4.59896 443.566 4.20312 444.65 4.20312C445.785 4.20312 446.65 4.6224 447.243 5.46094H447.337C447.249 4.84115 447.204 4.35156 447.204 3.99219V0.84375H449.048V13H447.611L447.29 11.8672H447.204C446.616 12.7266 445.754 13.1562 444.618 13.1562ZM445.111 11.6719C445.866 11.6719 446.415 11.4609 446.759 11.0391C447.103 10.612 447.28 9.92188 447.29 8.96875V8.71094C447.29 7.6224 447.113 6.84896 446.759 6.39062C446.405 5.93229 445.85 5.70312 445.095 5.70312C444.449 5.70312 443.952 5.96615 443.603 6.49219C443.254 7.01302 443.079 7.75781 443.079 8.72656C443.079 9.6849 443.249 10.4167 443.587 10.9219C443.926 11.4219 444.434 11.6719 445.111 11.6719ZM454.149 13H452.313V4.35938H454.149V13ZM452.204 2.07031C452.204 1.74219 452.292 1.48958 452.469 1.3125C452.652 1.13542 452.909 1.04688 453.243 1.04688C453.566 1.04688 453.816 1.13542 453.993 1.3125C454.175 1.48958 454.266 1.74219 454.266 2.07031C454.266 2.38281 454.175 2.63021 453.993 2.8125C453.816 2.98958 453.566 3.07812 453.243 3.07812C452.909 3.07812 452.652 2.98958 452.469 2.8125C452.292 2.63021 452.204 2.38281 452.204 2.07031ZM463.227 10.5391C463.227 11.3828 462.919 12.0312 462.305 12.4844C461.69 12.9323 460.81 13.1562 459.664 13.1562C458.513 13.1562 457.589 12.9818 456.891 12.6328V11.0469C457.906 11.5156 458.852 11.75 459.727 11.75C460.857 11.75 461.422 11.4089 461.422 10.7266C461.422 10.5078 461.359 10.3255 461.234 10.1797C461.109 10.0339 460.904 9.88281 460.617 9.72656C460.331 9.57031 459.932 9.39323 459.422 9.19531C458.427 8.8099 457.753 8.42448 457.398 8.03906C457.049 7.65365 456.875 7.15365 456.875 6.53906C456.875 5.79948 457.172 5.22656 457.766 4.82031C458.365 4.40885 459.177 4.20312 460.203 4.20312C461.219 4.20312 462.18 4.40885 463.086 4.82031L462.492 6.20312C461.56 5.81771 460.776 5.625 460.141 5.625C459.172 5.625 458.688 5.90104 458.688 6.45312C458.688 6.72396 458.812 6.95312 459.062 7.14062C459.318 7.32812 459.87 7.58594 460.719 7.91406C461.432 8.1901 461.951 8.44271 462.273 8.67188C462.596 8.90104 462.836 9.16667 462.992 9.46875C463.148 9.76562 463.227 10.1224 463.227 10.5391ZM469.078 11.6719C469.525 11.6719 469.973 11.6016 470.421 11.4609V12.8438C470.218 12.9323 469.955 13.0052 469.632 13.0625C469.314 13.125 468.984 13.1562 468.64 13.1562C466.9 13.1562 466.031 12.2396 466.031 10.4062V5.75H464.851V4.9375L466.117 4.26562L466.742 2.4375H467.874V4.35938H470.335V5.75H467.874V10.375C467.874 10.8177 467.984 11.1458 468.203 11.3594C468.426 11.5677 468.718 11.6719 469.078 11.6719ZM478.202 13L477.835 11.7969H477.772C477.356 12.3229 476.936 12.6823 476.514 12.875C476.093 13.0625 475.551 13.1562 474.889 13.1562C474.04 13.1562 473.376 12.9271 472.897 12.4688C472.423 12.0104 472.186 11.362 472.186 10.5234C472.186 9.63281 472.517 8.96094 473.178 8.50781C473.84 8.05469 474.848 7.80729 476.202 7.76562L477.694 7.71875V7.25781C477.694 6.70573 477.564 6.29427 477.303 6.02344C477.048 5.7474 476.65 5.60938 476.108 5.60938C475.665 5.60938 475.241 5.67448 474.835 5.80469C474.428 5.9349 474.038 6.08854 473.663 6.26562L473.069 4.95312C473.538 4.70833 474.051 4.52344 474.608 4.39844C475.165 4.26823 475.691 4.20312 476.186 4.20312C477.285 4.20312 478.113 4.44271 478.671 4.92188C479.233 5.40104 479.514 6.15365 479.514 7.17969V13H478.202ZM475.468 11.75C476.134 11.75 476.668 11.5651 477.069 11.1953C477.475 10.8203 477.678 10.2969 477.678 9.625V8.875L476.569 8.92188C475.705 8.95312 475.074 9.09896 474.678 9.35938C474.288 9.61458 474.093 10.0078 474.093 10.5391C474.093 10.9245 474.207 11.224 474.436 11.4375C474.665 11.6458 475.009 11.75 475.468 11.75ZM490.318 13H488.475V7.6875C488.475 7.02083 488.339 6.52344 488.068 6.19531C487.803 5.86719 487.378 5.70312 486.795 5.70312C486.019 5.70312 485.451 5.93229 485.092 6.39062C484.732 6.84896 484.553 7.61719 484.553 8.69531V13H482.717V4.35938H484.154L484.412 5.49219H484.506C484.766 5.08073 485.136 4.76302 485.615 4.53906C486.094 4.3151 486.626 4.20312 487.209 4.20312C489.282 4.20312 490.318 5.25781 490.318 7.36719V13Z" fill="#394769"/>
</svg>
