<svg width="201" height="46" viewBox="0 0 201 46" fill="none" xmlns="http://www.w3.org/2000/svg">
<path d="M113.016 22.3164L119.091 13.4511L113.981 5.56472C113.572 4.93503 113.21 4.27605 112.898 3.59312C112.673 3.09568 112.555 2.55639 112.551 2.01028C112.559 1.74228 112.625 1.47922 112.745 1.23941C112.865 0.99961 113.036 0.788843 113.245 0.621829C113.711 0.208092 114.317 -0.0128289 114.939 0.00396942C115.267 -0.0151471 115.596 0.0349354 115.903 0.150948C116.21 0.26696 116.49 0.44631 116.723 0.677369C117.388 1.45891 117.98 2.29886 118.494 3.187L122.565 9.78214L126.915 3.187L127.831 1.76037C128.048 1.41533 128.292 1.08802 128.56 0.781509C128.779 0.534127 129.047 0.335463 129.348 0.198362C129.667 0.0622242 130.011 -0.00406487 130.358 0.00396942C130.982 -0.0208318 131.59 0.201147 132.052 0.621829C132.259 0.806834 132.425 1.03367 132.538 1.28736C132.651 1.54105 132.709 1.81584 132.708 2.09359C132.708 2.92204 132.232 4.04552 131.281 5.46405L125.932 13.4476L131.691 22.3129C132.114 22.9288 132.491 23.575 132.819 24.2463C133.037 24.7008 133.156 25.1967 133.166 25.7007C133.17 26.1162 133.062 26.5251 132.854 26.8844C132.641 27.2439 132.334 27.538 131.965 27.7348C131.567 27.9496 131.12 28.0584 130.667 28.0507C130.208 28.0654 129.754 27.9537 129.355 27.7279C129.011 27.5233 128.715 27.2489 128.484 26.9226C128.261 26.5997 127.848 25.9784 127.244 25.0516L122.468 17.5366L117.397 25.2738C117.001 25.8916 116.72 26.3232 116.553 26.5685C116.379 26.8291 116.177 27.0711 115.953 27.2905C115.714 27.5279 115.431 27.7165 115.12 27.8459C114.761 27.9889 114.378 28.0586 113.992 28.0507C113.38 28.0704 112.785 27.8513 112.332 27.4397C112.104 27.2068 111.927 26.9279 111.814 26.6215C111.701 26.3152 111.654 25.9883 111.676 25.6625C111.669 24.7531 112.116 23.6377 113.016 22.3164Z" fill="#293C74"/>
<path d="M149.335 25.2044C148.254 26.0712 147.062 26.7902 145.791 27.3426C144.568 27.825 143.262 28.0609 141.948 28.0368C140.764 28.0617 139.592 27.7984 138.533 27.2697C137.599 26.7983 136.815 26.0774 136.266 25.187C135.741 24.3296 135.466 23.3426 135.471 22.3372C135.441 21.034 135.911 19.7686 136.783 18.8002C137.746 17.7776 139.011 17.0903 140.393 16.839C140.717 16.7626 141.513 16.596 142.781 16.3391C144.052 16.0788 145.142 15.8428 146.048 15.6241C146.954 15.4054 147.939 15.1485 149.002 14.8396C148.939 13.5067 148.671 12.529 148.196 11.9065C147.721 11.2817 146.738 10.9693 145.242 10.9693C143.96 10.9693 142.995 11.1486 142.347 11.5073C141.666 11.8964 141.093 12.4501 140.681 13.1179C140.378 13.6062 140.05 14.0789 139.699 14.5341C139.507 14.7656 139.097 14.8813 138.47 14.8813C137.928 14.8907 137.402 14.6948 136.998 14.3328C136.799 14.1616 136.639 13.9483 136.532 13.7083C136.425 13.4682 136.372 13.2073 136.377 12.9444C136.397 11.9996 136.729 11.0881 137.321 10.3514C138.094 9.40216 139.112 8.68204 140.265 8.26877C141.856 7.67979 143.546 7.40284 145.242 7.45305C147.464 7.45305 149.211 7.7157 150.484 8.24099C151.671 8.68772 152.636 9.58091 153.174 10.7298C153.701 11.866 153.964 13.3702 153.962 15.2423C153.962 16.4248 153.962 17.4302 153.962 18.2587C153.962 19.0883 153.962 19.9942 153.934 21.0182C153.944 22.0265 154.103 23.0277 154.406 23.9895C154.636 24.6332 154.794 25.3001 154.878 25.9784C154.869 26.2536 154.798 26.5233 154.672 26.7682C154.546 27.013 154.368 27.2269 154.149 27.3947C153.695 27.8075 153.103 28.0353 152.49 28.0334C151.902 28.0016 151.35 27.7382 150.956 27.3009C150.331 26.6715 149.787 25.9674 149.335 25.2044ZM148.988 17.8907C147.931 18.2497 146.851 18.5373 145.756 18.7516C144.343 19.057 143.368 19.2792 142.823 19.418C142.249 19.5768 141.718 19.8614 141.268 20.2511C141.02 20.4646 140.825 20.732 140.696 21.0329C140.568 21.3338 140.511 21.6601 140.529 21.9866C140.524 22.3555 140.599 22.721 140.75 23.0578C140.9 23.3946 141.122 23.6947 141.4 23.9374C142.025 24.4923 142.842 24.7812 143.677 24.7427C144.642 24.7528 145.595 24.5276 146.454 24.0867C147.226 23.7153 147.872 23.1266 148.314 22.3928C148.777 21.6291 149.008 20.3703 149.008 18.6162L148.988 17.8907Z" fill="#293C74"/>
<path d="M163.681 10.3031V10.9106C164.448 9.84336 165.444 8.96105 166.596 8.32805C167.723 7.76305 168.97 7.48071 170.231 7.5054C171.477 7.4842 172.708 7.78298 173.806 8.37318C174.828 8.92834 175.65 9.79038 176.156 10.8377C176.491 11.4593 176.71 12.1369 176.801 12.837C176.913 13.7455 176.963 14.6605 176.951 15.5758V24.9791C176.951 25.9891 176.718 26.7563 176.256 27.2735C176.031 27.5281 175.753 27.7298 175.441 27.8643C175.129 27.9987 174.791 28.0624 174.451 28.051C174.106 28.062 173.763 27.9964 173.446 27.859C173.129 27.7216 172.847 27.5157 172.619 27.2561C172.156 26.7262 171.924 25.9672 171.924 24.9791V16.5581C171.924 14.8966 171.693 13.6238 171.23 12.7398C170.765 11.8582 169.842 11.4174 168.453 11.4174C167.568 11.4126 166.704 11.6952 165.992 12.2227C165.238 12.778 164.671 13.549 164.364 14.4338C164.117 15.1858 163.993 16.5928 163.993 18.6546V24.986C163.993 26.0111 163.762 26.7794 163.299 27.2908C163.064 27.5432 162.778 27.7423 162.461 27.8746C162.143 28.007 161.8 28.0695 161.456 28.0579C161.116 28.0662 160.779 27.9992 160.469 27.8617C160.159 27.7243 159.883 27.5198 159.661 27.263C159.198 26.7331 158.967 25.9741 158.967 24.986V10.376C158.967 9.41567 159.176 8.69715 159.595 8.22045C159.813 7.97993 160.082 7.79121 160.382 7.66808C160.683 7.54496 161.007 7.49056 161.331 7.50887C161.752 7.50299 162.167 7.61092 162.532 7.82127C162.903 8.04753 163.201 8.37511 163.392 8.76542C163.61 9.2475 163.709 9.77487 163.681 10.3031V10.3031Z" fill="#293C74"/>
<path d="M194.758 25.2044C193.676 26.0712 192.485 26.7903 191.214 27.3427C189.991 27.825 188.685 28.061 187.371 28.0369C186.188 28.0619 185.017 27.7986 183.959 27.2698C183.024 26.7995 182.238 26.0784 181.689 25.1871C181.164 24.3297 180.889 23.3427 180.894 22.3373C180.864 21.0333 181.334 19.7674 182.21 18.8002C183.171 17.7777 184.435 17.0903 185.816 16.839C186.138 16.7627 186.934 16.5961 188.204 16.3392C189.475 16.0789 190.565 15.8428 191.474 15.6241C192.383 15.4055 193.362 15.1486 194.424 14.8397C194.362 13.5068 194.094 12.529 193.619 11.9066C193.145 11.2841 192.161 10.9717 190.669 10.9694C189.384 10.9694 188.418 11.1487 187.77 11.5074C187.089 11.8964 186.516 12.4502 186.104 13.118C185.802 13.6071 185.474 14.0798 185.122 14.5342C184.932 14.7656 184.522 14.8813 183.893 14.8813C183.351 14.8908 182.825 14.6949 182.421 14.3329C182.222 14.1617 182.062 13.9484 181.955 13.7083C181.847 13.4683 181.795 13.2074 181.8 12.9444C181.82 11.9997 182.152 11.0881 182.744 10.3515C183.518 9.403 184.536 8.68304 185.688 8.26883C187.28 7.67958 188.971 7.40263 190.669 7.45311C192.888 7.45311 194.634 7.71576 195.907 8.24105C197.094 8.68893 198.06 9.58163 198.6 10.7299C199.125 11.8661 199.387 13.3702 199.385 15.2423C199.385 16.4248 199.385 17.4303 199.385 18.2587C199.385 19.0883 199.385 19.9943 199.357 21.0183C199.366 22.0264 199.524 23.0276 199.825 23.9895C200.055 24.6332 200.214 25.3002 200.298 25.9785C200.288 26.2537 200.218 26.5234 200.092 26.7682C199.966 27.0131 199.787 27.227 199.569 27.3947C199.116 27.807 198.525 28.0349 197.913 28.0334C197.324 28.0025 196.771 27.7391 196.375 27.301C195.753 26.6706 195.209 25.9665 194.758 25.2044V25.2044ZM194.411 17.8908C193.355 18.2498 192.277 18.5374 191.182 18.7516C189.766 19.0571 188.791 19.2792 188.246 19.4181C187.672 19.5776 187.141 19.8621 186.691 20.2511C186.443 20.4646 186.248 20.7321 186.119 21.033C185.991 21.3339 185.934 21.6601 185.951 21.9867C185.947 22.3554 186.023 22.7207 186.174 23.0574C186.324 23.3941 186.545 23.6943 186.823 23.9375C187.448 24.4924 188.265 24.7813 189.1 24.7428C190.065 24.7533 191.018 24.5281 191.877 24.0867C192.649 23.7154 193.295 23.1266 193.737 22.3928C194.2 21.6292 194.431 20.3703 194.431 18.6163L194.411 17.8908Z" fill="#293C74"/>
<path d="M117.428 43.636L115.193 34.7429V44.3788C115.228 44.808 115.104 45.2351 114.846 45.5798C114.723 45.7051 114.577 45.8047 114.416 45.8727C114.254 45.9406 114.081 45.9756 113.905 45.9756C113.73 45.9756 113.557 45.9406 113.395 45.8727C113.233 45.8047 113.087 45.7051 112.965 45.5798C112.702 45.2346 112.578 44.8037 112.617 44.3718V33.3336C112.617 32.7227 112.777 32.3131 113.097 32.0979C113.484 31.8671 113.931 31.756 114.381 31.7786H115.259C115.646 31.7598 116.034 31.808 116.404 31.9209C116.522 31.9676 116.63 32.0374 116.721 32.1262C116.811 32.215 116.883 32.3211 116.932 32.4381C117.095 32.8294 117.227 33.2334 117.324 33.6461L119.351 41.2825L121.382 33.6461C121.466 33.2324 121.583 32.8261 121.733 32.4312C121.783 32.3143 121.856 32.2085 121.947 32.1197C122.038 32.031 122.146 31.9611 122.264 31.914C122.634 31.8007 123.022 31.7526 123.409 31.7716H124.287C124.738 31.749 125.185 31.8601 125.572 32.091C125.891 32.3062 126.047 32.7158 126.047 33.3267V44.3718C126.085 44.8014 125.961 45.2295 125.7 45.5728C125.581 45.7059 125.433 45.8108 125.268 45.8798C125.103 45.9488 124.924 45.9803 124.746 45.972C124.572 45.9774 124.399 45.9444 124.239 45.8754C124.08 45.8064 123.937 45.7031 123.822 45.5728C123.561 45.2295 123.438 44.8014 123.475 44.3718V34.7429L121.236 43.636C121.09 44.2156 120.972 44.6391 120.889 44.9099C120.785 45.1948 120.609 45.4482 120.379 45.6457C120.088 45.8895 119.716 46.0136 119.338 45.9929C119.058 46.0083 118.78 45.9452 118.535 45.8109C118.29 45.6766 118.087 45.4763 117.949 45.2327C117.819 44.9996 117.719 44.7513 117.651 44.4933C117.567 44.2122 117.505 43.931 117.428 43.636Z" fill="#F15E22"/>
<path d="M136.04 41.3318H130.955C130.946 41.8726 131.065 42.4078 131.302 42.8938C131.498 43.3076 131.809 43.6563 132.198 43.8981C132.587 44.14 133.038 44.2649 133.496 44.258C133.784 44.2605 134.071 44.2232 134.35 44.1469C134.614 44.0696 134.866 43.9526 135.096 43.7998C135.332 43.6524 135.555 43.4851 135.762 43.2999C135.967 43.1229 136.231 42.8834 136.554 42.5779C136.717 42.4526 136.921 42.3909 137.127 42.4044C137.362 42.395 137.592 42.4742 137.772 42.6265C137.857 42.7047 137.922 42.8008 137.965 42.9077C138.008 43.0145 138.026 43.1296 138.019 43.2444C138.001 43.538 137.906 43.8217 137.744 44.0671C137.527 44.4195 137.244 44.7271 136.911 44.973C136.491 45.2871 136.022 45.5298 135.523 45.6916C134.897 45.8917 134.243 45.9879 133.586 45.9762C131.915 45.9762 130.617 45.5006 129.691 44.5495C128.766 43.5985 128.303 42.306 128.303 40.6723C128.297 39.9451 128.415 39.2222 128.65 38.5341C128.861 37.9069 129.202 37.331 129.65 36.8437C130.101 36.3654 130.655 35.9963 131.271 35.7641C131.951 35.5039 132.674 35.3755 133.402 35.3858C134.315 35.3602 135.218 35.582 136.016 36.0279C136.705 36.4187 137.272 36.9947 137.651 37.6906C138.002 38.329 138.188 39.0448 138.192 39.7733C138.192 40.4293 138.005 40.8528 137.63 41.0472C137.13 41.2657 136.585 41.3633 136.04 41.3318V41.3318ZM130.955 39.8566H135.669C135.667 39.1283 135.413 38.423 134.95 37.8607C134.738 37.6406 134.482 37.468 134.198 37.3543C133.915 37.2406 133.61 37.1884 133.305 37.2012C133.007 37.1923 132.71 37.2475 132.435 37.3631C132.161 37.4786 131.914 37.6519 131.712 37.8711C131.249 38.4324 130.983 39.1298 130.955 39.8566Z" fill="#F15E22"/>
<path d="M147.498 44.4928V44.2325C147.187 44.5951 146.838 44.9233 146.457 45.2114C146.122 45.4592 145.749 45.6514 145.353 45.7806C144.933 45.9152 144.493 45.9808 144.052 45.975C143.451 45.9807 142.856 45.8464 142.316 45.5828C141.774 45.3142 141.3 44.9275 140.928 44.4512C140.525 43.9345 140.226 43.3453 140.046 42.7156C139.841 42.0193 139.74 41.2964 139.747 40.5705C139.747 38.9506 140.144 37.6848 140.938 36.7731C141.324 36.3269 141.805 35.9727 142.345 35.7366C142.886 35.5006 143.473 35.3886 144.062 35.4089C144.715 35.3886 145.364 35.5205 145.957 35.7942C146.528 36.0938 147.039 36.4963 147.464 36.9813V33.1596C147.433 32.7326 147.545 32.3075 147.783 31.9517C147.891 31.8153 148.029 31.7069 148.188 31.6356C148.346 31.5642 148.519 31.5322 148.693 31.5421C148.863 31.5318 149.033 31.5602 149.19 31.6252C149.348 31.6901 149.489 31.7899 149.602 31.917C149.836 32.2379 149.949 32.6314 149.921 33.0277V44.4824C149.951 44.8844 149.827 45.2829 149.574 45.5967C149.46 45.7161 149.323 45.8111 149.171 45.876C149.019 45.9409 148.856 45.9744 148.691 45.9744C148.526 45.9744 148.362 45.9409 148.21 45.876C148.059 45.8111 147.921 45.7161 147.807 45.5967C147.57 45.2804 147.46 44.8865 147.498 44.4928ZM142.382 40.6746C142.371 41.2927 142.49 41.9062 142.729 42.4761C142.915 42.9277 143.227 43.3159 143.628 43.5938C143.998 43.8402 144.433 43.9708 144.878 43.9687C145.32 43.9749 145.755 43.8544 146.131 43.6216C146.532 43.3519 146.846 42.9706 147.033 42.5247C147.279 41.9422 147.398 41.3137 147.38 40.6816C147.393 40.0689 147.275 39.4605 147.033 38.8974C146.841 38.4381 146.525 38.0414 146.12 37.7519C145.75 37.4926 145.309 37.3544 144.857 37.3562C144.4 37.3507 143.953 37.4931 143.583 37.7623C143.187 38.0586 142.885 38.4622 142.712 38.9252C142.488 39.4811 142.376 40.0755 142.382 40.6746V40.6746Z" fill="#F15E22"/>
<path d="M153.878 34.1979C153.537 34.2019 153.206 34.0781 152.951 33.8508C152.828 33.7302 152.73 33.5863 152.664 33.4274C152.597 33.2686 152.562 33.098 152.562 32.9257C152.562 32.7534 152.597 32.5828 152.664 32.424C152.73 32.2651 152.828 32.1212 152.951 32.0006C153.202 31.7717 153.531 31.6474 153.871 31.6535C154.199 31.6501 154.517 31.7647 154.767 31.9763C154.9 32.0931 155.005 32.239 155.073 32.4027C155.141 32.5664 155.17 32.7436 155.159 32.9205C155.168 33.0952 155.139 33.2697 155.073 33.4317C155.007 33.5937 154.906 33.7391 154.777 33.8577C154.531 34.0804 154.21 34.2019 153.878 34.1979ZM155.166 36.8845V44.3995C155.196 44.8258 155.064 45.2477 154.795 45.5797C154.675 45.7101 154.529 45.8132 154.366 45.8821C154.203 45.951 154.027 45.984 153.85 45.9789C153.675 45.985 153.501 45.9513 153.34 45.8803C153.18 45.8094 153.037 45.703 152.924 45.5693C152.668 45.2351 152.545 44.8188 152.576 44.3995V36.9609C152.542 36.5434 152.666 36.1283 152.924 35.7981C153.04 35.6696 153.184 35.5683 153.344 35.5011C153.504 35.4339 153.677 35.4026 153.85 35.4093C154.026 35.404 154.201 35.4358 154.364 35.5028C154.527 35.5698 154.673 35.6704 154.795 35.7981C155.056 36.0976 155.189 36.4877 155.166 36.8845V36.8845Z" fill="#F15E22"/>
<path d="M161.272 41.803H158.259C157.884 41.8301 157.512 41.7162 157.217 41.4836C157.102 41.3808 157.011 41.2537 156.951 41.1114C156.891 40.9691 156.863 40.8153 156.87 40.661C156.865 40.5053 156.893 40.3503 156.953 40.2066C157.013 40.0628 157.103 39.9336 157.217 39.8279C157.513 39.5962 157.884 39.4824 158.259 39.5086H161.272C161.646 39.4824 162.017 39.5962 162.313 39.8279C162.422 39.9363 162.509 40.0653 162.568 40.2074C162.627 40.3495 162.658 40.5019 162.658 40.6558C162.658 40.8097 162.627 40.9621 162.568 41.1042C162.509 41.2462 162.422 41.3752 162.313 41.4836C162.018 41.7175 161.646 41.8315 161.272 41.803V41.803Z" fill="#F15E22"/>
<path d="M164.489 35.6387H164.774V34.0767C164.774 33.6567 164.774 33.327 164.809 33.091C164.823 32.8749 164.886 32.6649 164.993 32.4766C165.098 32.2952 165.25 32.1454 165.433 32.0427C165.626 31.931 165.846 31.8735 166.069 31.8761C166.235 31.876 166.4 31.9087 166.553 31.9724C166.707 32.0362 166.847 32.1296 166.964 32.2475C167.144 32.4049 167.266 32.6173 167.311 32.8514C167.366 33.1864 167.389 33.5257 167.381 33.865V35.6387H168.335C168.639 35.6177 168.94 35.7105 169.179 35.8991C169.273 35.9832 169.347 36.0866 169.397 36.2023C169.446 36.318 169.47 36.4431 169.467 36.569C169.48 36.719 169.447 36.8693 169.374 37.0006C169.3 37.1318 169.189 37.2379 169.054 37.3049C168.679 37.4624 168.273 37.5336 167.867 37.5132H167.381V42.2964C167.377 42.6094 167.392 42.9224 167.426 43.2336C167.445 43.4313 167.525 43.6181 167.655 43.7681C167.736 43.8424 167.831 43.8987 167.935 43.9334C168.04 43.9681 168.15 43.9804 168.259 43.9695C168.467 43.9638 168.674 43.937 168.877 43.8896C169.078 43.8444 169.282 43.8177 169.488 43.8098C169.594 43.8108 169.7 43.8338 169.797 43.8774C169.894 43.921 169.982 43.9842 170.054 44.0632C170.136 44.1436 170.202 44.2404 170.245 44.3473C170.289 44.4543 170.31 44.5691 170.307 44.6845C170.303 44.8964 170.234 45.1019 170.11 45.2737C169.986 45.4455 169.812 45.5754 169.613 45.646C168.989 45.9042 168.316 46.0227 167.641 45.9931C166.999 46.0343 166.359 45.8923 165.794 45.5835C165.385 45.3264 165.09 44.921 164.972 44.4519C164.822 43.8118 164.755 43.1549 164.774 42.4977V37.5132H164.427C164.117 37.5361 163.811 37.4406 163.569 37.2459C163.471 37.1598 163.394 37.0527 163.343 36.9325C163.291 36.8123 163.268 36.6821 163.274 36.5517C163.271 36.4238 163.297 36.2968 163.351 36.1806C163.404 36.0644 163.484 35.9622 163.583 35.8817C163.847 35.6959 164.168 35.6098 164.489 35.6387V35.6387Z" fill="#F15E22"/>
<path d="M178.51 41.3318H173.425C173.416 41.8726 173.535 42.4078 173.772 42.8938C173.968 43.3076 174.279 43.6563 174.668 43.8981C175.057 44.14 175.507 44.2649 175.965 44.258C176.254 44.2605 176.541 44.2232 176.819 44.1469C177.084 44.0696 177.336 43.9526 177.566 43.7998C177.802 43.6524 178.025 43.4851 178.232 43.2999C178.437 43.1229 178.701 42.8834 179.024 42.5779C179.187 42.4526 179.391 42.3909 179.596 42.4044C179.832 42.395 180.062 42.4742 180.242 42.6265C180.327 42.7044 180.393 42.8003 180.437 42.9072C180.48 43.0141 180.499 43.1293 180.492 43.2444C180.473 43.5382 180.377 43.8218 180.214 44.0671C179.997 44.4195 179.714 44.7271 179.381 44.973C178.961 45.2871 178.492 45.5298 177.993 45.6916C177.367 45.8917 176.713 45.9879 176.056 45.9762C174.387 45.9762 173.089 45.5006 172.161 44.5495C171.233 43.5985 170.77 42.306 170.773 40.6723C170.767 39.9451 170.884 39.2222 171.12 38.5341C171.331 37.9069 171.672 37.331 172.119 36.8437C172.571 36.3654 173.125 35.9963 173.74 35.7641C174.42 35.5039 175.144 35.3755 175.872 35.3858C176.785 35.3602 177.688 35.582 178.485 36.0279C179.175 36.4187 179.741 36.9947 180.12 37.6906C180.471 38.329 180.657 39.0448 180.662 39.7733C180.662 40.4293 180.474 40.8528 180.103 41.0472C179.601 41.2652 179.056 41.3626 178.51 41.3318V41.3318ZM173.425 39.8566H178.138C178.137 39.1283 177.883 38.423 177.42 37.8607C177.208 37.6409 176.953 37.4684 176.67 37.3547C176.387 37.241 176.083 37.1887 175.778 37.2012C175.479 37.1918 175.182 37.2467 174.907 37.3623C174.631 37.4779 174.384 37.6514 174.181 37.8711C173.719 38.4324 173.453 39.1298 173.425 39.8566V39.8566Z" fill="#F15E22"/>
<path d="M191.213 42.5807C191.243 43.2406 191.055 43.8919 190.679 44.4348C190.303 44.9778 189.759 45.3824 189.131 45.5867C188.331 45.863 187.488 45.9924 186.642 45.9686C185.822 45.9894 185.006 45.8442 184.243 45.5416C183.664 45.3215 183.154 44.9513 182.765 44.469C182.47 44.1019 182.303 43.6485 182.289 43.1778C182.287 43.0413 182.313 42.9058 182.366 42.7798C182.418 42.6539 182.496 42.54 182.595 42.4454C182.695 42.3444 182.816 42.2652 182.948 42.2127C183.081 42.1601 183.223 42.1353 183.365 42.1399C183.593 42.1253 183.817 42.1972 183.994 42.3412C184.164 42.504 184.306 42.694 184.413 42.9036C184.637 43.3586 184.993 43.7351 185.435 43.9831C185.877 44.2311 186.384 44.3388 186.888 44.292C187.341 44.3099 187.788 44.1888 188.169 43.9449C188.313 43.8653 188.435 43.7508 188.523 43.6119C188.611 43.473 188.662 43.3141 188.673 43.15C188.686 42.9511 188.645 42.7523 188.553 42.5754C188.461 42.3985 188.322 42.2502 188.152 42.1468C187.613 41.8675 187.037 41.6665 186.441 41.5498C185.696 41.3767 184.966 41.1446 184.257 40.8556C183.738 40.6424 183.276 40.3108 182.907 39.8871C182.566 39.4728 182.387 38.9484 182.404 38.4119C182.406 37.8845 182.568 37.3701 182.869 36.9367C183.218 36.4431 183.699 36.0581 184.257 35.8259C184.951 35.5344 185.699 35.3936 186.451 35.4129C187.063 35.4054 187.673 35.4754 188.266 35.6211C188.742 35.7335 189.196 35.9235 189.61 36.1835C189.933 36.3857 190.212 36.6514 190.429 36.9645C190.603 37.2095 190.701 37.5005 190.71 37.801C190.714 37.9377 190.69 38.0737 190.639 38.2005C190.587 38.3272 190.51 38.4418 190.412 38.5369C190.175 38.7398 189.869 38.842 189.558 38.8215C189.306 38.8315 189.06 38.7502 188.864 38.5924C188.626 38.3841 188.41 38.1515 188.221 37.8982C188.033 37.6503 187.797 37.4425 187.527 37.2873C187.191 37.1189 186.816 37.04 186.441 37.0582C186.03 37.0429 185.623 37.1479 185.271 37.3602C185.134 37.4319 185.019 37.5388 184.937 37.67C184.855 37.8012 184.81 37.9519 184.806 38.1065C184.804 38.2381 184.835 38.3681 184.895 38.485C184.956 38.6019 185.044 38.702 185.153 38.7764C185.432 38.9759 185.745 39.1229 186.076 39.2103C186.465 39.3248 186.999 39.4637 187.676 39.6303C188.362 39.7792 189.027 40.0124 189.655 40.3245C190.112 40.5533 190.51 40.8848 190.818 41.293C191.084 41.669 191.222 42.1203 191.213 42.5807V42.5807Z" fill="#F15E22"/>
<path d="M193.557 35.6388H193.845V34.0768C193.845 33.6568 193.845 33.327 193.876 33.091C193.893 32.875 193.957 32.6653 194.063 32.4766C194.167 32.2946 194.318 32.1445 194.501 32.0427C194.695 31.9306 194.915 31.873 195.14 31.8761C195.475 31.8774 195.797 32.0108 196.035 32.2475C196.214 32.4056 196.335 32.6177 196.382 32.8515C196.438 33.1863 196.463 33.5256 196.455 33.865V35.6388H197.403C197.706 35.6177 198.007 35.7106 198.246 35.8991C198.341 35.9826 198.416 36.0858 198.467 36.2016C198.517 36.3174 198.541 36.4428 198.538 36.569C198.55 36.7193 198.517 36.8697 198.443 37.0009C198.368 37.1321 198.256 37.238 198.121 37.3049C197.747 37.4627 197.343 37.5339 196.938 37.5132H196.452V42.2964C196.447 42.6093 196.461 42.9223 196.493 43.2336C196.512 43.4313 196.592 43.6181 196.722 43.7682C196.803 43.8419 196.899 43.8979 197.003 43.9325C197.107 43.9672 197.217 43.9798 197.326 43.9695C197.536 43.9638 197.744 43.937 197.948 43.8897C198.147 43.8445 198.351 43.8178 198.555 43.8098C198.662 43.8106 198.767 43.8335 198.865 43.8771C198.962 43.9207 199.049 43.9841 199.121 44.0632C199.204 44.1437 199.269 44.2404 199.313 44.3474C199.356 44.4543 199.377 44.5691 199.374 44.6845C199.37 44.8964 199.301 45.102 199.177 45.2738C199.053 45.4456 198.88 45.5754 198.68 45.646C198.056 45.9039 197.383 46.0224 196.708 45.9932C196.065 46.0348 195.424 45.8928 194.858 45.5836C194.45 45.3253 194.155 44.9204 194.036 44.452C193.889 43.8184 193.824 43.1687 193.841 42.5186V37.5132H193.494C193.185 37.5358 192.879 37.4403 192.637 37.2459C192.539 37.1599 192.461 37.0527 192.41 36.9325C192.359 36.8123 192.336 36.6821 192.342 36.5517C192.339 36.4239 192.366 36.2972 192.419 36.1812C192.473 36.0651 192.552 35.9627 192.651 35.8818C192.915 35.6965 193.236 35.6104 193.557 35.6388V35.6388Z" fill="#F15E22"/>
<path d="M99.8294 40.2689C99.689 39.777 99.4531 39.3176 99.1352 38.9169C98.8173 38.5162 98.4236 38.1821 97.9765 37.9335C97.5294 37.685 97.0378 37.527 96.5296 37.4685C96.0215 37.41 95.5068 37.4522 95.0149 37.5927C94.9212 37.6204 85.6429 40.0849 80.6236 34.7568C79.0373 33.0733 77.2497 30.5914 75.358 27.9395C70.3214 20.9139 64.2504 12.4721 55.7496 9.7334C56.4125 11.0055 56.6341 12.4618 56.3797 13.8735C56.1252 15.2852 55.4091 16.5724 54.3438 17.533C60.0121 19.9073 64.7571 26.5128 69.0266 32.4797C71.0746 35.3364 73.008 38.0335 74.9483 40.0953C79.4261 44.8577 85.3617 45.9789 89.9783 45.9789C92.3985 45.9894 94.8098 45.6884 97.1531 45.0834C97.645 44.943 98.1044 44.7071 98.5051 44.3892C98.9058 44.0713 99.24 43.6775 99.4885 43.2305C99.737 42.7834 99.895 42.2917 99.9535 41.7836C100.012 41.2754 99.9698 40.7607 99.8294 40.2689V40.2689Z" fill="#F15E22"/>
<path d="M33.3578 6.17491C33.3584 7.33131 33.0161 8.46194 32.3741 9.42374C31.7321 10.3855 30.8192 11.1353 29.7509 11.5781C28.6827 12.021 27.507 12.137 26.3728 11.9116C25.2386 11.6862 24.1968 11.1294 23.3791 10.3117C22.5614 9.49399 22.0046 8.45212 21.7791 7.31791C21.5537 6.18369 21.6698 5.0081 22.1126 3.93985C22.5555 2.87161 23.3052 1.95872 24.267 1.31669C25.2288 0.674654 26.3594 0.332322 27.5158 0.333009C29.0652 0.333009 30.5511 0.94849 31.6467 2.04406C32.7423 3.13963 33.3578 4.62554 33.3578 6.17491" fill="#293C74"/>
<path d="M49.9917 8.82813C51.0246 8.82812 52.0153 9.23845 52.7456 9.96883C53.476 10.6992 53.8863 11.6898 53.8863 12.7227C53.8863 13.7556 53.476 14.7463 52.7456 15.4766C52.0153 16.207 51.0246 16.6173 49.9917 16.6173C42.324 16.6173 36.2808 25.0452 30.9526 32.4804C28.9046 35.3371 26.9712 38.0342 25.0517 40.096C20.5704 44.8549 14.6383 45.9796 10.0182 45.9796C7.59812 45.9901 5.1867 45.6891 2.84341 45.084C1.85008 44.8005 1.01009 44.134 0.508198 43.2311C0.00630614 42.3282 -0.116358 41.2629 0.167187 40.2696C0.450732 39.2763 1.11724 38.4362 2.02012 37.9344C2.92301 37.4325 3.98831 37.3098 4.98164 37.5933C6.63396 37.9943 8.32834 38.1959 10.0286 38.1938C13.0416 38.1938 16.7765 37.5205 19.3764 34.7574C20.9592 33.0739 22.7469 30.5921 24.6386 27.9401C30.7443 19.4255 38.3391 8.82813 50.0091 8.82813" fill="#293C74"/>
<path d="M3.89459 16.6173C10.4342 16.6173 15.7901 22.7473 20.5317 29.1655C21.1704 28.2942 21.8334 27.3709 22.5102 26.4267C23.4058 25.1771 24.3395 23.8789 25.3149 22.5703C19.8861 15.5378 13.166 8.82813 3.89459 8.82813C2.86168 8.82812 1.87108 9.23845 1.1407 9.96883C0.410321 10.6992 0 11.6898 0 12.7227C0 13.7556 0.410321 14.7463 1.1407 15.4766C1.87108 16.207 2.86168 16.6173 3.89459 16.6173V16.6173Z" fill="#293C74"/>
<path d="M48.9185 37.5935C48.8283 37.6213 39.5465 40.0858 34.5272 34.7576C34.1801 34.3758 33.7983 33.9523 33.4199 33.4941L33.0728 33.994C31.5663 36.0767 30.1224 38.1038 28.668 39.8949L28.8623 40.1066C33.3401 44.869 39.2757 45.9902 43.8958 45.9902C46.3159 46.0003 48.7273 45.6993 51.0706 45.0946C52.064 44.8106 52.9038 44.1437 53.4053 43.2405C53.9069 42.3372 54.0291 41.2718 53.7451 40.2785C53.4611 39.2851 52.7941 38.4453 51.8909 37.9437C50.9877 37.4422 49.9223 37.32 48.9289 37.604L48.9185 37.5935Z" fill="#293C74"/>
</svg>
