<svg width="61" height="73" viewBox="0 0 61 73" fill="none" xmlns="http://www.w3.org/2000/svg">
<g clip-path="url(#clip0_1239:341)">
<path d="M45.9032 11.1338H58.5571C58.8792 11.1338 59.188 11.2617 59.4158 11.4894C59.6435 11.7172 59.7714 12.026 59.7714 12.3481V70.8427C59.7714 71.1648 59.6435 71.4736 59.4158 71.7013C59.188 71.9291 58.8792 72.057 58.5571 72.057H12.9467C12.6247 72.057 12.3158 71.9291 12.0881 71.7013C11.8604 71.4736 11.7324 71.1648 11.7324 70.8427V12.3481C11.7324 12.026 11.8604 11.7172 12.0881 11.4894C12.3158 11.2617 12.6247 11.1338 12.9467 11.1338H25.6007" stroke="white" stroke-width="1.89242" stroke-miterlimit="10"/>
<path d="M24.8352 11.1338H17.6787V26.6863" stroke="white" stroke-width="1.89242" stroke-miterlimit="10"/>
<path d="M17.6787 30.5279V64.522C17.6791 64.5514 17.6853 64.5805 17.697 64.6075C17.7086 64.6345 17.7254 64.659 17.7465 64.6795C17.7676 64.7 17.7925 64.7161 17.8199 64.727C17.8472 64.7379 17.8764 64.7432 17.9058 64.7428H53.5968C53.6262 64.7432 53.6554 64.7379 53.6827 64.727C53.7101 64.7161 53.735 64.7 53.7561 64.6795C53.7772 64.659 53.794 64.6345 53.8056 64.6075C53.8173 64.5805 53.8235 64.5514 53.8239 64.522V11.1338H46.68" stroke="white" stroke-width="1.89242" stroke-miterlimit="10"/>
<path d="M43.0465 6.16925H40.8796C40.6381 6.17012 40.3989 6.12282 40.1759 6.03013C39.9528 5.93744 39.7505 5.8012 39.5808 5.6294C39.411 5.4576 39.2773 5.25368 39.1873 5.02956C39.0973 4.80544 39.0528 4.56563 39.0566 4.32414C39.0602 4.18307 39.0549 4.04192 39.0408 3.9015C38.9505 3.06084 38.5415 2.28675 37.8978 1.73845C37.2542 1.19016 36.425 0.909352 35.5806 0.953791C34.7363 0.99823 33.9411 1.36454 33.3586 1.97736C32.776 2.59019 32.4505 3.40294 32.4489 4.24845V4.27053C32.4552 4.51493 32.4129 4.75815 32.3243 4.98605C32.2358 5.21395 32.1029 5.42198 31.9333 5.59806C31.7636 5.77414 31.5607 5.91475 31.3363 6.01172C31.1118 6.1087 30.8704 6.1601 30.6259 6.16294H28.4559C28.074 6.1617 27.6955 6.23596 27.3423 6.38146C26.9892 6.52696 26.6682 6.74083 26.398 7.01078C26.1277 7.28073 25.9135 7.60143 25.7676 7.95445C25.6218 8.30746 25.5471 8.68583 25.5479 9.0678V9.38321C25.5454 9.76624 25.6189 10.146 25.764 10.5004C25.9091 10.8549 26.1231 11.1771 26.3935 11.4484C26.6639 11.7197 26.9854 11.9347 27.3394 12.081C27.6934 12.2273 28.0729 12.3019 28.4559 12.3007H43.0465C43.8152 12.3007 44.5525 11.9953 45.0961 11.4517C45.6396 10.9081 45.945 10.1709 45.945 9.40213V9.08673C45.9475 8.70449 45.8744 8.32554 45.7298 7.97169C45.5853 7.61783 45.3722 7.29606 45.1028 7.0249C44.8334 6.75373 44.513 6.53853 44.1601 6.39169C43.8072 6.24484 43.4287 6.16924 43.0465 6.16925V6.16925Z" stroke="white" stroke-width="1.89242" stroke-miterlimit="10"/>
<path d="M35.7512 29.3666C38.2473 29.3666 40.2709 27.343 40.2709 24.8469C40.2709 22.3507 38.2473 20.3271 35.7512 20.3271C33.255 20.3271 31.2314 22.3507 31.2314 24.8469C31.2314 27.343 33.255 29.3666 35.7512 29.3666Z" stroke="white" stroke-width="1.57701" stroke-miterlimit="10"/>
<path d="M35.751 17.792V20.3278" stroke="white" stroke-width="1.57701" stroke-miterlimit="10"/>
<path d="M35.751 29.5254V32.0612" stroke="white" stroke-width="1.57701" stroke-miterlimit="10"/>
<path d="M42.8854 24.9268H40.3496" stroke="white" stroke-width="1.57701" stroke-miterlimit="10"/>
<path d="M31.152 24.9268H28.6162" stroke="white" stroke-width="1.57701" stroke-miterlimit="10"/>
<path d="M40.7976 29.9724L39.0029 28.1777" stroke="white" stroke-width="1.57701" stroke-miterlimit="10"/>
<path d="M32.4995 21.6745L30.708 19.8799" stroke="white" stroke-width="1.57701" stroke-miterlimit="10"/>
<path d="M30.708 29.9724L32.4995 28.1777" stroke="white" stroke-width="1.57701" stroke-miterlimit="10"/>
<path d="M39.0029 21.6745L40.7976 19.8799" stroke="white" stroke-width="1.57701" stroke-miterlimit="10"/>
<path d="M35.751 19.0694C36.4565 19.0694 37.0284 18.4975 37.0284 17.792C37.0284 17.0866 36.4565 16.5146 35.751 16.5146C35.0455 16.5146 34.4736 17.0866 34.4736 17.792C34.4736 18.4975 35.0455 19.0694 35.751 19.0694Z" fill="white"/>
<path d="M35.751 33.338C36.4565 33.338 37.0284 32.7661 37.0284 32.0606C37.0284 31.3551 36.4565 30.7832 35.751 30.7832C35.0455 30.7832 34.4736 31.3551 34.4736 32.0606C34.4736 32.7661 35.0455 33.338 35.751 33.338Z" fill="white"/>
<path d="M42.8848 26.2032C43.5903 26.2032 44.1622 25.6313 44.1622 24.9258C44.1622 24.2203 43.5903 23.6484 42.8848 23.6484C42.1793 23.6484 41.6074 24.2203 41.6074 24.9258C41.6074 25.6313 42.1793 26.2032 42.8848 26.2032Z" fill="white"/>
<path d="M28.6162 26.2032C29.3217 26.2032 29.8936 25.6313 29.8936 24.9258C29.8936 24.2203 29.3217 23.6484 28.6162 23.6484C27.9108 23.6484 27.3389 24.2203 27.3389 24.9258C27.3389 25.6313 27.9108 26.2032 28.6162 26.2032Z" fill="white"/>
<path d="M41.7009 30.8769C42.1998 30.378 42.1998 29.5692 41.7009 29.0704C41.2021 28.5715 40.3933 28.5715 39.8945 29.0704C39.3956 29.5692 39.3956 30.378 39.8945 30.8769C40.3933 31.3757 41.2021 31.3757 41.7009 30.8769Z" fill="white"/>
<path d="M31.6092 20.7812C32.108 20.2823 32.108 19.4735 31.6092 18.9747C31.1103 18.4758 30.3015 18.4758 29.8027 18.9747C29.3038 19.4735 29.3038 20.2823 29.8027 20.7812C30.3015 21.28 31.1103 21.28 31.6092 20.7812Z" fill="white"/>
<path d="M31.6111 30.873C32.11 30.3741 32.11 29.5653 31.6111 29.0665C31.1123 28.5676 30.3035 28.5676 29.8046 29.0665C29.3058 29.5653 29.3058 30.3741 29.8046 30.873C30.3035 31.3718 31.1123 31.3718 31.6111 30.873Z" fill="white"/>
<path d="M41.698 20.7851C42.1969 20.2862 42.1969 19.4774 41.698 18.9786C41.1992 18.4797 40.3904 18.4797 39.8915 18.9786C39.3927 19.4774 39.3927 20.2862 39.8915 20.7851C40.3904 21.2839 41.1992 21.2839 41.698 20.7851Z" fill="white"/>
<path d="M22.5859 37.3193H35.7509" stroke="white" stroke-width="1.57701" stroke-miterlimit="10"/>
<path d="M22.5859 42.5947H45.0647" stroke="white" stroke-width="1.57701" stroke-miterlimit="10"/>
<path d="M22.5859 47.8711H35.7509" stroke="white" stroke-width="1.57701" stroke-miterlimit="10"/>
<path d="M22.5859 53.1514H35.7509" stroke="white" stroke-width="1.57701" stroke-miterlimit="10"/>
<path d="M37.9551 47.8711H42.8848" stroke="white" stroke-width="1.57701" stroke-miterlimit="10"/>
<path d="M7.15338 7.49398H6.41218V6.74963C6.41218 6.50704 6.31582 6.27439 6.14428 6.10286C5.97275 5.93133 5.7401 5.83496 5.49752 5.83496C5.25493 5.83496 5.02228 5.93133 4.85075 6.10286C4.67921 6.27439 4.58285 6.50704 4.58285 6.74963V7.49398H3.8385C3.59591 7.49398 3.36326 7.59035 3.19173 7.76188C3.02019 7.93341 2.92383 8.16606 2.92383 8.40865C2.92383 8.65123 3.02019 8.88388 3.19173 9.05542C3.36326 9.22695 3.59591 9.32332 3.8385 9.32332H4.58285V10.0677C4.58285 10.3103 4.67921 10.5429 4.85075 10.7144C5.02228 10.886 5.25493 10.9823 5.49752 10.9823C5.7401 10.9823 5.97275 10.886 6.14428 10.7144C6.31582 10.5429 6.41218 10.3103 6.41218 10.0677V9.32332H7.15654C7.39912 9.32332 7.63177 9.22695 7.8033 9.05542C7.97484 8.88388 8.0712 8.65123 8.0712 8.40865C8.0712 8.16606 7.97484 7.93341 7.8033 7.76188C7.63177 7.59035 7.39912 7.49398 7.15654 7.49398H7.15338Z" fill="white"/>
<path d="M58.056 5.70589H57.3116V4.96154C57.3116 4.71896 57.2152 4.48631 57.0437 4.31478C56.8722 4.14324 56.6395 4.04688 56.3969 4.04688C56.1543 4.04688 55.9217 4.14324 55.7502 4.31478C55.5786 4.48631 55.4823 4.71896 55.4823 4.96154V5.70589H54.7379C54.4953 5.70589 54.2627 5.80226 54.0911 5.97379C53.9196 6.14533 53.8232 6.37798 53.8232 6.62056C53.8232 6.86315 53.9196 7.0958 54.0911 7.26733C54.2627 7.43886 54.4953 7.53523 54.7379 7.53523H55.4823V8.27958C55.4823 8.52217 55.5786 8.75482 55.7502 8.92635C55.9217 9.09788 56.1543 9.19425 56.3969 9.19425C56.6395 9.19425 56.8722 9.09788 57.0437 8.92635C57.2152 8.75482 57.3116 8.52217 57.3116 8.27958V7.53523H58.056C58.2985 7.53523 58.5312 7.43886 58.7027 7.26733C58.8743 7.0958 58.9706 6.86315 58.9706 6.62056C58.9706 6.37798 58.8743 6.14533 58.7027 5.97379C58.5312 5.80226 58.2985 5.70589 58.056 5.70589Z" fill="white"/>
<path d="M4.23271 51.8993H3.48836V51.1549C3.48836 50.9123 3.39199 50.6797 3.22046 50.5081C3.04892 50.3366 2.81627 50.2402 2.57369 50.2402C2.3311 50.2402 2.09845 50.3366 1.92692 50.5081C1.75539 50.6797 1.65902 50.9123 1.65902 51.1549V51.8993H0.914668C0.672083 51.8993 0.439434 51.9956 0.2679 52.1672C0.0963666 52.3387 0 52.5713 0 52.8139C0 53.0565 0.0963666 53.2892 0.2679 53.4607C0.439434 53.6322 0.672083 53.7286 0.914668 53.7286H1.65902V54.4729C1.65902 54.7155 1.75539 54.9482 1.92692 55.1197C2.09845 55.2912 2.3311 55.3876 2.57369 55.3876C2.81627 55.3876 3.04892 55.2912 3.22046 55.1197C3.39199 54.9482 3.48836 54.7155 3.48836 54.4729V53.7286H4.23271C4.47529 53.7286 4.70794 53.6322 4.87948 53.4607C5.05101 53.2892 5.14738 53.0565 5.14738 52.8139C5.14738 52.5713 5.05101 52.3387 4.87948 52.1672C4.70794 51.9956 4.47529 51.8993 4.23271 51.8993Z" fill="white"/>
<path d="M17.6779 29.5189C18.1343 29.5189 18.5043 29.149 18.5043 28.6926C18.5043 28.2362 18.1343 27.8662 17.6779 27.8662C17.2215 27.8662 16.8516 28.2362 16.8516 28.6926C16.8516 29.149 17.2215 29.5189 17.6779 29.5189Z" fill="white"/>
<path d="M53.8237 59.2959H44.166" stroke="white" stroke-width="1.89242" stroke-miterlimit="10"/>
<path d="M39.0371 59.2959H42.0744" stroke="white" stroke-width="1.89242" stroke-miterlimit="10"/>
</g>
<defs>
<clipPath id="clip0_1239:341">
<rect width="60.7151" height="73" fill="white"/>
</clipPath>
</defs>
</svg>
