<svg width="25" height="25" viewBox="0 0 25 25" fill="none" xmlns="http://www.w3.org/2000/svg">
<path d="M18.7008 25H6.0118C2.69699 25 0 22.303 0 18.9882V6.0118C0 2.69699 2.69699 0 6.0118 0H18.7015C22.0163 0 24.7133 2.69699 24.7133 6.0118V18.9882C24.7133 22.303 22.0163 25 18.7008 25ZM6.0118 1.92871C3.76035 1.92871 1.92871 3.76035 1.92871 6.0118V18.9882C1.92871 21.2396 3.76035 23.0713 6.0118 23.0713H18.7015C20.9529 23.0713 22.7845 21.2396 22.7845 18.9882V6.0118C22.7845 3.76035 20.9529 1.92871 18.7015 1.92871H6.0118Z" fill="#F25C05"/>
<path d="M12.356 20.0215C11.823 20.0215 11.3916 19.5902 11.3916 19.0572V6.20166C11.3916 5.66869 11.823 5.2373 12.356 5.2373C12.8889 5.2373 13.3203 5.66869 13.3203 6.20166V19.0572C13.3203 19.5895 12.8889 20.0215 12.356 20.0215Z" fill="#F25C05"/>
<path d="M18.7841 13.5938H5.9292C5.39623 13.5938 4.96484 13.1624 4.96484 12.6294C4.96484 12.0964 5.39623 11.665 5.9292 11.665H18.7847C19.3177 11.665 19.7491 12.0964 19.7491 12.6294C19.7491 13.1624 19.3171 13.5938 18.7841 13.5938Z" fill="#F25C05"/>
</svg>
