<svg width="60" height="58" viewBox="0 0 60 58" fill="none" xmlns="http://www.w3.org/2000/svg">
<g clip-path="url(#clip0_1239:414)">
<path d="M14.0969 5.60938H51.1659C51.7746 5.60938 52.3584 5.85118 52.7888 6.28161C53.2193 6.71203 53.4611 7.2958 53.4611 7.90451V46.5929L43.8572 56.2835H14.0969C13.4882 56.2835 12.9044 56.0417 12.474 55.6112C12.0436 55.1808 11.8018 54.597 11.8018 53.9883V7.90451C11.8018 7.2958 12.0436 6.71203 12.474 6.28161C12.9044 5.85118 13.4882 5.60938 14.0969 5.60938V5.60938Z" stroke="white" stroke-width="1.53009" stroke-miterlimit="10"/>
<path d="M6.10254 41.4319V3.05979C6.10254 2.45108 6.34435 1.8673 6.77477 1.43688C7.20519 1.00646 7.78897 0.764648 8.39768 0.764648H45.4616C46.0703 0.764648 46.6541 1.00646 47.0845 1.43688C47.5149 1.8673 47.7567 2.45108 47.7567 3.05979V5.60994" stroke="white" stroke-width="1.53009" stroke-miterlimit="10"/>
<path d="M6.10254 44.5381V49.1539C6.10254 49.7626 6.34435 50.3464 6.77477 50.7768C7.20519 51.2072 7.78897 51.449 8.39768 51.449H11.8098" stroke="white" stroke-width="1.53009" stroke-miterlimit="10"/>
<path d="M53.4535 46.5918H43.8496V56.29" stroke="white" stroke-width="1.53009" stroke-miterlimit="10"/>
<path d="M25.8027 14.0469V22.2762" stroke="white" stroke-width="1.53009" stroke-miterlimit="10"/>
<path d="M29.9188 18.1602H21.6895" stroke="white" stroke-width="1.53009" stroke-miterlimit="10"/>
<path d="M29.9188 38.5322H21.6895" stroke="white" stroke-width="1.53009" stroke-miterlimit="10"/>
<path d="M42.9269 14.6045H37.1151C36.756 14.6045 36.4648 14.8956 36.4648 15.2548V21.0666C36.4648 21.4257 36.756 21.7169 37.1151 21.7169H42.9269C43.2861 21.7169 43.5772 21.4257 43.5772 21.0666V15.2548C43.5772 14.8956 43.2861 14.6045 42.9269 14.6045Z" stroke="white" stroke-width="1.53009" stroke-miterlimit="10"/>
<path d="M42.9269 34.9756H37.1151C36.756 34.9756 36.4648 35.2667 36.4648 35.6259V41.4377C36.4648 41.7968 36.756 42.088 37.1151 42.088H42.9269C43.2861 42.088 43.5772 41.7968 43.5772 41.4377V35.6259C43.5772 35.2667 43.2861 34.9756 42.9269 34.9756Z" stroke="white" stroke-width="1.53009" stroke-miterlimit="10"/>
<path d="M38.7061 17.356L40.2846 18.8606L48.8812 10.8965" stroke="white" stroke-width="1.53009" stroke-miterlimit="10"/>
<path d="M3.42231 4.18708H2.82047V3.58525C2.82047 3.38911 2.74255 3.201 2.60386 3.06231C2.46517 2.92362 2.27706 2.8457 2.08092 2.8457C1.88479 2.8457 1.69668 2.92362 1.55799 3.06231C1.4193 3.201 1.34138 3.38911 1.34138 3.58525V4.18708H0.739544C0.543405 4.18708 0.355299 4.265 0.216608 4.40369C0.0779161 4.54238 0 4.73049 0 4.92663C0 5.12277 0.0779161 5.31087 0.216608 5.44956C0.355299 5.58826 0.543405 5.66617 0.739544 5.66617H1.34138V6.26801C1.34138 6.46415 1.4193 6.65225 1.55799 6.79095C1.69668 6.92964 1.88479 7.00755 2.08092 7.00755C2.27706 7.00755 2.46517 6.92964 2.60386 6.79095C2.74255 6.65225 2.82047 6.46415 2.82047 6.26801V5.66617H3.42231C3.61844 5.66617 3.80655 5.58826 3.94524 5.44956C4.08393 5.31087 4.16185 5.12277 4.16185 4.92663C4.16185 4.73049 4.08393 4.54238 3.94524 4.40369C3.80655 4.265 3.61844 4.18708 3.42231 4.18708V4.18708Z" fill="white"/>
<path d="M59.2604 4.53083H58.6535V3.929C58.6535 3.73286 58.5756 3.54475 58.4369 3.40606C58.2982 3.26737 58.1101 3.18945 57.9139 3.18945C57.7178 3.18945 57.5297 3.26737 57.391 3.40606C57.2523 3.54475 57.1744 3.73286 57.1744 3.929V4.53083H56.5726C56.3764 4.53083 56.1883 4.60875 56.0496 4.74744C55.9109 4.88613 55.833 5.07424 55.833 5.27038C55.833 5.46652 55.9109 5.65462 56.0496 5.79331C56.1883 5.93201 56.3764 6.00992 56.5726 6.00992H57.1744V6.61176C57.1744 6.8079 57.2523 6.996 57.391 7.1347C57.5297 7.27339 57.7178 7.3513 57.9139 7.3513C58.1101 7.3513 58.2982 7.27339 58.4369 7.1347C58.5756 6.996 58.6535 6.8079 58.6535 6.61176V6.00992H59.2553C59.4515 6.00992 59.6396 5.93201 59.7783 5.79331C59.9169 5.65462 59.9949 5.46652 59.9949 5.27038C59.9949 5.07424 59.9169 4.88613 59.7783 4.74744C59.6396 4.60875 59.4515 4.53083 59.2553 4.53083H59.2604Z" fill="white"/>
<path d="M4.16254 55.1578H3.5709V54.5559C3.5709 54.3598 3.49299 54.1717 3.3543 54.033C3.21561 53.8943 3.0275 53.8164 2.83136 53.8164C2.63522 53.8164 2.44711 53.8943 2.30842 54.033C2.16973 54.1717 2.09182 54.3598 2.09182 54.5559V55.1578H1.47978C1.28364 55.1578 1.09553 55.2357 0.956842 55.3744C0.81815 55.5131 0.740234 55.7012 0.740234 55.8973C0.740234 56.0935 0.81815 56.2816 0.956842 56.4203C1.09553 56.559 1.28364 56.6369 1.47978 56.6369H2.08161V57.2387C2.08161 57.4349 2.15953 57.623 2.29822 57.7616C2.43691 57.9003 2.62502 57.9783 2.82116 57.9783C3.0173 57.9783 3.2054 57.9003 3.3441 57.7616C3.48279 57.623 3.5607 57.4349 3.5607 57.2387V56.6369H4.16254C4.35868 56.6369 4.54679 56.559 4.68548 56.4203C4.82417 56.2816 4.90208 56.0935 4.90208 55.8973C4.90208 55.7012 4.82417 55.5131 4.68548 55.3744C4.54679 55.2357 4.35868 55.1578 4.16254 55.1578Z" fill="white"/>
<path d="M6.10271 43.6537C6.47171 43.6537 6.77085 43.3545 6.77085 42.9855C6.77085 42.6165 6.47171 42.3174 6.10271 42.3174C5.73371 42.3174 5.43457 42.6165 5.43457 42.9855C5.43457 43.3545 5.73371 43.6537 6.10271 43.6537Z" fill="white"/>
<path d="M11.8125 47.9346H26.9247" stroke="white" stroke-width="1.53009" stroke-miterlimit="10"/>
<path d="M29.3447 47.9883H31.8949" stroke="white" stroke-width="1.53009" stroke-miterlimit="10"/>
</g>
<defs>
<clipPath id="clip0_1239:414">
<rect width="60" height="57.9777" fill="white"/>
</clipPath>
</defs>
</svg>
