<svg width="60" height="68" viewBox="0 0 60 68" fill="none" xmlns="http://www.w3.org/2000/svg">
<g clip-path="url(#clip0_1239:298)">
<path d="M40.1886 0.749023H17.0529C16.5286 0.749023 16.1035 1.17408 16.1035 1.69841V8.33213C16.1035 8.85646 16.5286 9.28152 17.0529 9.28152H40.1886C40.7129 9.28152 41.138 8.85646 41.138 8.33213V1.69841C41.138 1.17408 40.7129 0.749023 40.1886 0.749023Z" stroke="white" stroke-width="1.49745" stroke-miterlimit="10"/>
<path d="M19.4219 9.28516H37.8196V57.2037C37.8196 58.4119 37.5816 59.6083 37.1193 60.7245C36.6569 61.8408 35.9792 62.855 35.1249 63.7093C34.2705 64.5637 33.2563 65.2414 32.1401 65.7037C31.0238 66.1661 29.8274 66.4041 28.6192 66.4041V66.4041C26.1797 66.4033 23.8403 65.4336 22.1155 63.7083C20.3908 61.983 19.4219 59.6433 19.4219 57.2037V9.28516Z" stroke="white" stroke-width="1.49745" stroke-miterlimit="10"/>
<path d="M41.1379 5.0166H30.4551" stroke="white" stroke-width="1.49745" stroke-miterlimit="10"/>
<path d="M26.7834 5.0166H16.1035" stroke="white" stroke-width="1.49745" stroke-miterlimit="10"/>
<path d="M28.6196 58.9669C30.1661 58.9669 31.4198 56.8979 31.4198 54.3458C31.4198 51.7936 30.1661 49.7246 28.6196 49.7246C27.073 49.7246 25.8193 51.7936 25.8193 54.3458C25.8193 56.8979 27.073 58.9669 28.6196 58.9669Z" stroke="white" stroke-width="1.49745" stroke-miterlimit="10"/>
<path d="M28.6191 19.4739V9.28223" stroke="white" stroke-width="1.49745" stroke-miterlimit="10"/>
<path d="M28.6191 49.7227V41.873" stroke="white" stroke-width="1.49745" stroke-miterlimit="10"/>
<path d="M25.8071 19.4678H37.8197V41.8667H25.8071C25.599 41.8667 25.3995 41.784 25.2523 41.6369C25.1052 41.4897 25.0225 41.2901 25.0225 41.082V20.2614C25.0217 20.1577 25.0414 20.0549 25.0804 19.9589C25.1195 19.8628 25.1771 19.7754 25.25 19.7016C25.3229 19.6279 25.4096 19.5693 25.5053 19.5292C25.6009 19.489 25.7035 19.4682 25.8071 19.4678V19.4678Z" stroke="white" stroke-width="1.49745" stroke-miterlimit="10"/>
<path d="M37.8232 23.415H32.7559V28.4824H37.8232V23.415Z" stroke="white" stroke-width="1.49745" stroke-miterlimit="10"/>
<path d="M37.8232 32.8672H32.7559V37.9346H37.8232V32.8672Z" stroke="white" stroke-width="1.49745" stroke-miterlimit="10"/>
<path d="M4.01917 8.41321H3.31237V7.70641C3.31237 7.47607 3.22086 7.25515 3.05798 7.09228C2.8951 6.9294 2.67419 6.83789 2.44385 6.83789C2.2135 6.83789 1.99259 6.9294 1.82971 7.09228C1.66683 7.25515 1.57532 7.47607 1.57532 7.70641V8.41321H0.868524C0.638177 8.41321 0.417264 8.50472 0.254385 8.6676C0.0915049 8.83048 0 9.05139 0 9.28174C0 9.51208 0.0915049 9.733 0.254385 9.89588C0.417264 10.0588 0.638177 10.1503 0.868524 10.1503H1.57532V10.8571C1.57532 11.0874 1.66683 11.3083 1.82971 11.4712C1.99259 11.6341 2.2135 11.7256 2.44385 11.7256C2.67419 11.7256 2.8951 11.6341 3.05798 11.4712C3.22086 11.3083 3.31237 11.0874 3.31237 10.8571V10.1503H4.01917C4.24951 10.1503 4.47043 10.0588 4.63331 9.89588C4.79619 9.733 4.88769 9.51208 4.88769 9.28174C4.88769 9.05139 4.79619 8.83048 4.63331 8.6676C4.47043 8.50472 4.24951 8.41321 4.01917 8.41321Z" fill="white"/>
<path d="M59.1315 25.0108H58.4247V24.307C58.4247 24.0767 58.3332 23.8557 58.1703 23.6929C58.0074 23.53 57.7865 23.4385 57.5561 23.4385C57.3258 23.4385 57.1049 23.53 56.942 23.6929C56.7791 23.8557 56.6876 24.0767 56.6876 24.307V25.0138H55.9808C55.7505 25.0138 55.5296 25.1053 55.3667 25.2682C55.2038 25.4311 55.1123 25.652 55.1123 25.8823C55.1123 26.1127 55.2038 26.3336 55.3667 26.4965C55.5296 26.6593 55.7505 26.7508 55.9808 26.7508H56.6876V27.4576C56.6876 27.688 56.7791 27.9089 56.942 28.0718C57.1049 28.2347 57.3258 28.3262 57.5561 28.3262C57.7865 28.3262 58.0074 28.2347 58.1703 28.0718C58.3332 27.9089 58.4247 27.688 58.4247 27.4576V26.7508H59.1315C59.3618 26.7508 59.5827 26.6593 59.7456 26.4965C59.9085 26.3336 60 26.1127 60 25.8823C60 25.652 59.9085 25.4311 59.7456 25.2682C59.5827 25.1053 59.3618 25.0138 59.1315 25.0138V25.0108Z" fill="white"/>
<path d="M4.01917 46.422H3.31237V45.7152C3.31237 45.4849 3.22086 45.2639 3.05798 45.1011C2.8951 44.9382 2.67419 44.8467 2.44385 44.8467C2.2135 44.8467 1.99259 44.9382 1.82971 45.1011C1.66683 45.2639 1.57532 45.4849 1.57532 45.7152V46.422H0.868524C0.638177 46.422 0.417264 46.5135 0.254385 46.6764C0.0915049 46.8393 0 47.0602 0 47.2905C0 47.5209 0.0915049 47.7418 0.254385 47.9047C0.417264 48.0675 0.638177 48.159 0.868524 48.159H1.57532V48.8658C1.57532 49.0962 1.66683 49.3171 1.82971 49.48C1.99259 49.6429 2.2135 49.7344 2.44385 49.7344C2.67419 49.7344 2.8951 49.6429 3.05798 49.48C3.22086 49.3171 3.31237 49.0962 3.31237 48.8658V48.159H4.01917C4.24951 48.159 4.47043 48.0675 4.63331 47.9047C4.79619 47.7418 4.88769 47.5209 4.88769 47.2905C4.88769 47.0602 4.79619 46.8393 4.63331 46.6764C4.47043 46.5135 4.24951 46.422 4.01917 46.422Z" fill="white"/>
<path d="M28.6196 5.80175C29.053 5.80175 29.4043 5.45045 29.4043 5.01709C29.4043 4.58373 29.053 4.23242 28.6196 4.23242C28.1863 4.23242 27.835 4.58373 27.835 5.01709C27.835 5.45045 28.1863 5.80175 28.6196 5.80175Z" fill="white"/>
<path d="M25.3877 28.4814H28.6192" stroke="white" stroke-width="1.49745" stroke-miterlimit="10"/>
<path d="M29.3828 28.4814H30.3412" stroke="white" stroke-width="1.49745" stroke-miterlimit="10"/>
</g>
<defs>
<clipPath id="clip0_1239:298">
<rect width="60" height="67.1548" fill="white"/>
</clipPath>
</defs>
</svg>
