<svg width="158" height="150" viewBox="0 0 158 150" fill="none" xmlns="http://www.w3.org/2000/svg">
<path d="M2.40932 108.129L13.2324 92.61L4.12549 78.8049C3.39987 77.7019 2.7552 76.5496 2.19636 75.3567C1.78774 74.4868 1.56871 73.5428 1.55332 72.585C1.56435 72.1096 1.68238 71.6425 1.89896 71.2172C2.11554 70.7918 2.42529 70.4189 2.806 70.1249C3.63075 69.4029 4.70356 69.0146 5.80825 69.0384C6.39398 69.0044 6.98045 69.092 7.5294 69.2954C8.07836 69.4989 8.57748 69.8137 8.99423 70.2192C10.1765 71.5876 11.2316 73.0572 12.1468 74.6105L19.4207 86.1605L27.1747 74.6269C27.8136 73.6551 28.3564 72.8228 28.8116 72.134C29.1952 71.5259 29.631 70.9512 30.1144 70.416C30.503 69.9819 30.9813 69.6339 31.5174 69.3951C32.0841 69.1567 32.6964 69.0407 33.3129 69.0548C34.4259 69.0109 35.5113 69.4015 36.3318 70.1413C36.7024 70.4641 36.9988 70.8606 37.2011 71.3046C37.4034 71.7486 37.5071 72.2298 37.5052 72.7162C37.5052 74.1622 36.6575 76.1275 34.9622 78.6122L25.4294 92.61L35.6888 108.129C36.4449 109.207 37.1177 110.339 37.7014 111.516C38.094 112.31 38.3076 113.179 38.3277 114.062C38.3375 114.791 38.1429 115.51 37.7651 116.138C37.3873 116.766 36.841 117.281 36.1857 117.625C35.4756 117.997 34.6812 118.186 33.8766 118.174C33.0563 118.201 32.2444 118.005 31.5299 117.608C30.9173 117.252 30.3892 116.771 29.9807 116.198C29.5855 115.635 28.8492 114.541 27.7719 112.918L19.2411 99.7893L10.1968 113.32C9.4953 114.398 8.99423 115.157 8.69776 115.587C8.38173 116.04 8.02239 116.463 7.62463 116.85C7.19803 117.265 6.69314 117.595 6.13812 117.822C5.49848 118.072 4.81396 118.193 4.12549 118.178C3.03697 118.213 1.9776 117.829 1.17334 117.108C0.391113 116.397 0 115.361 0 114C0 112.398 0.803113 110.441 2.40932 108.129Z" fill="#293C74"/>
<path d="M67.152 113.183C65.2245 114.7 63.1 115.959 60.8343 116.926C58.6575 117.779 56.3295 118.197 53.9863 118.156C51.8757 118.202 49.7856 117.741 47.8983 116.812C46.2319 115.99 44.832 114.727 43.8564 113.167C42.92 111.665 42.4284 109.937 42.4367 108.177C42.3841 105.896 43.2223 103.683 44.7792 101.99C46.3408 100.284 48.4857 99.1387 51.2138 98.5537C51.7872 98.4225 53.2069 98.1314 55.4729 97.6804C57.7388 97.2294 59.6804 96.8194 61.2978 96.4504C62.9151 96.0732 64.6689 95.6153 66.5591 95.0769C66.4505 92.7507 65.9717 91.041 65.1226 89.9476C64.2736 88.8542 62.5199 88.3076 59.8614 88.3076C57.5732 88.3076 55.8514 88.6205 54.6962 89.2465C53.4824 89.9288 52.4617 90.8985 51.7273 92.0674C51.1864 92.9156 50.6025 93.7366 49.9778 94.5274C49.6354 94.9374 48.9047 95.1261 47.7814 95.1261C46.8159 95.1437 45.8793 94.8025 45.1591 94.1707C44.7999 93.8676 44.5143 93.4893 44.3236 93.0636C44.1328 92.6378 44.0416 92.1755 44.0568 91.7107C44.0877 90.0581 44.675 88.4621 45.727 87.1718C46.8405 85.704 48.5887 84.4945 50.9716 83.5432C53.3544 82.592 56.3177 82.1301 59.8614 82.1574C63.8199 82.1574 66.9321 82.6166 69.198 83.535C71.3163 84.3194 73.0392 85.8847 74 87.8976C74.9353 89.8847 75.4029 92.5198 75.4029 95.8026C75.4029 97.8772 75.4029 99.6389 75.4029 101.088C75.4029 102.536 75.3862 104.145 75.3528 105.913C75.3653 107.678 75.6468 109.43 76.188 111.112C76.7475 112.916 77.0231 114.081 77.0231 114.597C77.002 115.076 76.8745 115.544 76.6494 115.969C76.4244 116.394 76.1072 116.766 75.7203 117.058C74.9121 117.777 73.8593 118.175 72.7682 118.173C71.844 118.173 70.9309 117.746 70.029 116.894C68.9193 115.777 67.9531 114.531 67.152 113.183V113.183ZM66.5591 100.387C64.6754 101.012 62.7518 101.514 60.8009 101.891C58.2955 102.419 56.5529 102.808 55.5731 103.06C54.5497 103.335 53.6023 103.833 52.8005 104.515C52.3592 104.888 52.0108 105.354 51.782 105.88C51.5533 106.405 51.4503 106.975 51.481 107.545C51.4727 108.191 51.6068 108.831 51.8742 109.422C52.1417 110.012 52.536 110.538 53.0301 110.965C54.1457 111.934 55.6009 112.439 57.0888 112.375C58.8006 112.388 60.49 111.993 62.0118 111.223C63.3871 110.573 64.5393 109.542 65.3272 108.259C66.1401 106.919 66.5465 104.716 66.5465 101.649L66.5591 100.387Z" fill="#293C74"/>
<path d="M92.7274 87.1037V88.1697C94.0968 86.3052 95.8729 84.7643 97.926 83.6596C99.9349 82.6694 102.159 82.1741 104.407 82.2164C106.629 82.1792 108.823 82.7045 110.778 83.7416C112.597 84.7117 114.058 86.2194 114.954 88.0508C115.553 89.1379 115.945 90.3231 116.111 91.5482C116.306 93.1398 116.394 94.7424 116.374 96.3453V112.803C116.374 114.574 115.956 115.914 115.121 116.821C114.703 117.254 114.199 117.598 113.64 117.833C113.081 118.067 112.479 118.186 111.871 118.183C111.264 118.18 110.663 118.055 110.107 117.815C109.55 117.575 109.05 117.226 108.636 116.789C107.801 115.862 107.384 114.533 107.384 112.803V98.0428C107.384 95.1235 106.966 92.893 106.131 91.3514C105.296 89.8098 103.673 89.0417 101.262 89.0471C99.683 89.0377 98.1432 89.5311 96.8737 90.4535C95.5238 91.426 94.5049 92.7767 93.9508 94.3281C93.511 95.6456 93.2911 98.1057 93.2911 101.708V112.779C93.2911 114.574 92.8735 115.919 92.0384 116.813C91.6218 117.256 91.1131 117.605 90.5467 117.837C89.9803 118.069 89.3697 118.178 88.7564 118.158C88.1506 118.174 87.5488 118.057 86.9947 117.816C86.4407 117.575 85.9484 117.215 85.5537 116.764C84.7186 115.837 84.301 114.509 84.301 112.779V87.2308C84.301 85.5456 84.6727 84.2869 85.4243 83.4587C85.811 83.0443 86.2864 82.7191 86.8163 82.5065C87.3462 82.2938 87.9175 82.1989 88.4891 82.2286C89.2424 82.2185 89.9844 82.4098 90.6354 82.7822C91.2972 83.1728 91.8306 83.7421 92.172 84.4222C92.5714 85.26 92.7618 86.1792 92.7274 87.1037V87.1037Z" fill="#293C74"/>
<path d="M148.129 113.183C146.202 114.701 144.077 115.96 141.811 116.927C139.635 117.779 137.307 118.197 134.963 118.157C132.853 118.203 130.763 117.741 128.875 116.812C127.209 115.99 125.809 114.728 124.833 113.167C123.897 111.666 123.405 109.938 123.414 108.177C123.361 105.897 124.199 103.683 125.756 101.99C127.318 100.284 129.464 99.1392 132.195 98.5542C132.752 98.423 134.17 98.1319 136.45 97.6809C138.713 97.2258 140.659 96.8117 142.296 96.4509C143.933 96.0901 145.665 95.6309 147.557 95.0774C147.448 92.743 146.97 91.0305 146.121 89.9399C145.285 88.8493 143.519 88.2999 140.859 88.2999C138.571 88.2999 136.849 88.6128 135.694 89.2388C134.481 89.9222 133.461 90.8917 132.725 92.0597C132.184 92.9079 131.6 93.729 130.976 94.5197C130.633 94.9298 129.903 95.1183 128.784 95.1183C127.817 95.1366 126.878 94.7954 126.157 94.163C125.798 93.8599 125.512 93.4816 125.321 93.0559C125.131 92.6301 125.04 92.1678 125.055 91.703C125.086 90.0504 125.673 88.4544 126.725 87.1641C127.838 85.6963 129.587 84.4867 131.969 83.5355C134.352 82.5843 137.309 82.1251 140.838 82.1579C144.797 82.1579 147.909 82.6171 150.175 83.5355C152.293 84.3199 154.016 85.8852 154.977 87.8981C155.912 89.8852 156.38 92.5203 156.38 95.8031C156.38 97.8777 156.38 99.6394 156.38 101.088C156.38 102.535 156.355 104.143 156.33 105.914C156.344 107.678 156.626 109.43 157.165 111.113C157.725 112.917 158 114.081 158 114.598C157.979 115.077 157.852 115.545 157.626 115.97C157.401 116.395 157.084 116.766 156.697 117.058C155.889 117.778 154.836 118.176 153.745 118.173C152.824 118.173 151.911 117.747 151.006 116.894C149.896 115.777 148.93 114.531 148.129 113.183V113.183ZM147.536 100.387C145.648 101.013 143.721 101.515 141.765 101.892C139.26 102.419 137.517 102.809 136.538 103.06C135.514 103.336 134.567 103.833 133.765 104.516C133.324 104.888 132.975 105.355 132.747 105.88C132.518 106.405 132.415 106.975 132.446 107.546C132.437 108.192 132.571 108.832 132.839 109.422C133.106 110.012 133.5 110.539 133.995 110.965C135.11 111.934 136.565 112.44 138.053 112.376C139.779 112.395 141.484 112 143.018 111.224C144.393 110.573 145.546 109.543 146.334 108.259C147.149 106.92 147.556 104.717 147.553 101.65L147.536 100.387Z" fill="#293C74"/>
<path d="M10.2763 145.452L6.28445 129.872V146.748C6.34121 147.5 6.11543 148.247 5.64975 148.847C5.43233 149.066 5.17256 149.239 4.88573 149.358C4.59889 149.477 4.29077 149.538 3.97952 149.538C3.66826 149.538 3.36016 149.477 3.07332 149.358C2.78648 149.239 2.5267 149.066 2.30928 148.847C1.83248 148.249 1.60154 147.497 1.66207 146.739V127.416C1.66207 126.345 1.94601 125.628 2.49719 125.255C3.18833 124.85 3.9861 124.656 4.78958 124.697H6.35126C7.04293 124.662 7.73547 124.747 8.3973 124.947C8.60695 125.029 8.7982 125.15 8.96013 125.304C9.12205 125.458 9.25146 125.642 9.34097 125.845C9.62965 126.533 9.86282 127.242 10.0383 127.965L13.6544 141.352L17.2704 127.965C17.4439 127.241 17.6772 126.532 17.9677 125.845C18.0573 125.642 18.1867 125.458 18.3486 125.304C18.5105 125.15 18.7018 125.029 18.9114 124.947C19.5732 124.747 20.2658 124.662 20.9575 124.697H22.5191C23.3226 124.656 24.1204 124.85 24.8115 125.255C25.3752 125.628 25.6467 126.345 25.6467 127.416V146.756C25.7042 147.509 25.4767 148.256 25.0078 148.855C24.7942 149.088 24.5306 149.272 24.236 149.393C23.9415 149.514 23.6232 149.57 23.3041 149.556C22.9938 149.565 22.6852 149.506 22.4003 149.385C22.1153 149.264 21.8609 149.083 21.6548 148.855C21.1826 148.258 20.9534 147.51 21.0118 146.756V129.88L17.0199 145.46C16.761 146.474 16.5494 147.216 16.3852 147.687C16.2018 148.188 15.8879 148.633 15.4749 148.978C14.9607 149.393 14.3062 149.602 13.6418 149.564C13.1172 149.58 12.5989 149.449 12.147 149.187C11.754 148.949 11.4269 148.62 11.1949 148.228C10.9603 147.822 10.7806 147.388 10.6605 146.936C10.5435 146.457 10.4099 145.965 10.2763 145.452Z" fill="#F15E22"/>
<path d="M43.4513 141.417H34.3861C34.3781 142.366 34.597 143.302 35.025 144.152C35.376 144.876 35.9313 145.486 36.6249 145.909C37.3184 146.332 38.1211 146.55 38.9375 146.538C39.4508 146.543 39.9622 146.478 40.4575 146.346C40.9292 146.212 41.3781 146.01 41.7895 145.747C42.2067 145.483 42.6044 145.189 42.9795 144.87C43.3386 144.558 43.8146 144.136 44.3867 143.603C44.6783 143.385 45.0403 143.279 45.4055 143.303C45.826 143.285 46.2384 143.421 46.5622 143.685C46.7114 143.824 46.828 143.993 46.9037 144.18C46.9795 144.368 47.0125 144.57 47.0006 144.771C46.9677 145.285 46.7978 145.781 46.5079 146.21C46.1209 146.827 45.6178 147.365 45.0256 147.797C44.2666 148.349 43.4201 148.774 42.5202 149.056C41.403 149.406 40.2353 149.575 39.0628 149.556C36.087 149.556 33.7723 148.722 32.1188 147.055C30.4653 145.388 29.6399 143.126 29.6427 140.269C29.6373 138.995 29.8519 137.73 30.2774 136.526C30.6542 135.428 31.2616 134.419 32.0603 133.566C32.864 132.729 33.8506 132.083 34.9457 131.676C36.1604 131.224 37.4508 131 38.7496 131.015C40.3778 130.969 41.9883 131.358 43.4096 132.139C44.6425 132.821 45.6553 133.83 46.3325 135.05C46.9555 136.164 47.2869 137.412 47.2971 138.683C47.2971 139.831 46.963 140.573 46.2949 140.909C45.4011 141.296 44.4268 141.47 43.4513 141.417V141.417ZM34.3861 138.834H42.8041C42.6914 137.28 42.2613 136.116 41.5222 135.341C41.1456 134.957 40.6905 134.655 40.1868 134.456C39.683 134.257 39.142 134.164 38.5993 134.185C38.0675 134.169 37.5384 134.265 37.0478 134.468C36.5572 134.67 36.1166 134.973 35.7557 135.357C35.0041 136.142 34.5476 137.301 34.3861 138.834V138.834Z" fill="#F15E22"/>
<path d="M63.8783 146.941V146.494C63.3282 147.126 62.7109 147.697 62.0369 148.2C61.4406 148.638 60.7746 148.976 60.066 149.2C59.3174 149.436 58.5349 149.553 57.7486 149.545C56.6805 149.552 55.6254 149.315 54.667 148.852C53.7097 148.381 52.8721 147.706 52.2159 146.875C51.5014 145.977 50.9685 144.953 50.6459 143.858C50.2793 142.64 50.0992 141.376 50.1114 140.106C50.1114 137.261 50.8185 135.044 52.2326 133.456C52.9264 132.674 53.7899 132.055 54.7598 131.644C55.7296 131.233 56.7809 131.041 57.8363 131.082C59.0005 131.047 60.1569 131.279 61.2143 131.758C62.2294 132.283 63.138 132.987 63.8951 133.833V127.113C63.8429 126.365 64.0441 125.621 64.4671 124.997C64.6586 124.759 64.9058 124.569 65.1878 124.444C65.4698 124.319 65.7783 124.263 66.0872 124.28C66.3905 124.262 66.6939 124.313 66.9746 124.427C67.2552 124.541 67.5058 124.717 67.7074 124.94C68.1248 125.5 68.326 126.187 68.2752 126.879V146.97C68.3315 147.673 68.1135 148.37 67.6656 148.921C67.4657 149.135 67.2213 149.304 66.9489 149.417C66.6765 149.529 66.3826 149.583 66.0872 149.573C65.791 149.581 65.4967 149.524 65.2254 149.407C64.954 149.29 64.7122 149.116 64.5172 148.897C64.0578 148.349 63.8292 147.649 63.8783 146.941V146.941ZM54.763 140.258C54.7316 141.336 54.9308 142.409 55.3476 143.407C55.677 144.199 56.2341 144.88 56.951 145.367C57.6092 145.8 58.3843 146.03 59.1766 146.027C59.9673 146.033 60.743 145.815 61.4106 145.399C62.1289 144.932 62.6899 144.265 63.0223 143.485C63.4537 142.463 63.6587 141.363 63.6236 140.258C63.6515 139.185 63.4465 138.119 63.0223 137.13C62.6776 136.328 62.114 135.636 61.3939 135.129C60.7337 134.677 59.9478 134.437 59.1432 134.44C58.3272 134.429 57.5292 134.676 56.8675 135.145C56.1615 135.669 55.6226 136.38 55.3142 137.195C54.9285 138.175 54.7413 139.22 54.763 140.27V140.258Z" fill="#F15E22"/>
<path d="M75.2567 128.931C74.6449 128.948 74.0491 128.738 73.5865 128.345C73.3669 128.134 73.1925 127.881 73.0735 127.603C72.9544 127.324 72.8931 127.025 72.8931 126.723C72.8931 126.421 72.9544 126.122 73.0735 125.844C73.1925 125.566 73.3669 125.313 73.5865 125.102C74.0328 124.697 74.6197 124.474 75.2275 124.479C75.8111 124.473 76.3771 124.674 76.8225 125.044C77.0567 125.249 77.2409 125.502 77.3616 125.786C77.4823 126.07 77.5364 126.377 77.5199 126.684C77.5361 126.99 77.4836 127.296 77.3659 127.579C77.2483 127.863 77.0685 128.117 76.8393 128.325C76.4083 128.715 75.8432 128.932 75.2567 128.931V128.931ZM77.5491 133.63V146.787C77.6004 147.529 77.3631 148.261 76.8852 148.837C76.674 149.065 76.4156 149.245 76.1275 149.366C75.8394 149.487 75.5282 149.546 75.2149 149.539C74.8994 149.551 74.5852 149.493 74.2959 149.368C74.0065 149.244 73.7497 149.057 73.5447 148.821C73.0849 148.237 72.8591 147.508 72.91 146.771V133.765C72.8484 133.028 73.0754 132.295 73.5447 131.715C73.7555 131.489 74.0142 131.31 74.3027 131.192C74.5912 131.073 74.9026 131.018 75.2149 131.031C75.5267 131.023 75.8364 131.081 76.1242 131.199C76.4119 131.317 76.6712 131.493 76.8852 131.715C77.1186 131.976 77.2973 132.279 77.4113 132.608C77.5252 132.936 77.572 133.284 77.5491 133.63V133.63Z" fill="#F15E22"/>
<path d="M88.4307 142.27H83.065C82.3969 142.314 81.7353 142.116 81.2069 141.712C80.9992 141.532 80.8345 141.31 80.7248 141.06C80.615 140.811 80.5629 140.54 80.5722 140.269C80.5615 139.996 80.6113 139.724 80.7179 139.472C80.8246 139.22 80.9858 138.994 81.1902 138.809C81.7217 138.399 82.391 138.2 83.065 138.251H88.4307C89.1061 138.199 89.7769 138.398 90.3097 138.809C90.5041 138.999 90.6584 139.226 90.7636 139.475C90.8689 139.724 90.9231 139.991 90.9231 140.26C90.9231 140.53 90.8689 140.797 90.7636 141.046C90.6584 141.295 90.5041 141.521 90.3097 141.712C89.7761 142.121 89.1059 142.32 88.4307 142.27V142.27Z" fill="#F15E22"/>
<path d="M94.1634 131.45H94.6728V128.716C94.6728 127.982 94.6728 127.408 94.7313 126.989C94.7579 126.612 94.8706 126.244 95.0612 125.915C95.2479 125.598 95.5175 125.337 95.842 125.157C96.1877 124.959 96.5817 124.856 96.982 124.862C97.5801 124.865 98.1528 125.099 98.577 125.513C98.8881 125.793 99.0989 126.164 99.1783 126.571C99.2788 127.158 99.3222 127.752 99.3078 128.347V131.45H101.003C101.545 131.412 102.082 131.576 102.506 131.91C102.675 132.056 102.809 132.236 102.899 132.439C102.988 132.642 103.031 132.861 103.024 133.082C103.046 133.344 102.987 133.607 102.855 133.835C102.724 134.064 102.525 134.249 102.285 134.366C101.619 134.645 100.896 134.772 100.172 134.735H99.3078V143.103C99.2997 143.651 99.3248 144.198 99.3829 144.743C99.4182 145.089 99.5644 145.415 99.8005 145.674C99.9437 145.805 100.114 145.906 100.3 145.968C100.485 146.03 100.682 146.053 100.878 146.034C101.249 146.021 101.618 145.973 101.98 145.891C102.337 145.81 102.7 145.764 103.066 145.752C103.256 145.753 103.443 145.793 103.617 145.869C103.791 145.944 103.947 146.054 104.076 146.19C104.224 146.333 104.34 146.504 104.417 146.692C104.495 146.88 104.532 147.082 104.527 147.285C104.527 148.019 104.11 148.581 103.304 148.966C102.498 149.351 101.32 149.552 99.7921 149.552C98.3432 149.552 97.245 149.31 96.4976 148.835C95.7691 148.38 95.2437 147.671 95.0278 146.85C94.7662 145.742 94.6498 144.605 94.6812 143.468V134.735H94.0674C93.5163 134.772 92.9709 134.605 92.5391 134.267C92.3684 134.12 92.2328 133.937 92.1419 133.732C92.051 133.527 92.007 133.306 92.013 133.082C92.0074 132.858 92.0542 132.636 92.1498 132.433C92.2453 132.23 92.3871 132.051 92.5642 131.91C93.0252 131.576 93.5918 131.413 94.1634 131.45V131.45Z" fill="#F15E22"/>
<path d="M119.163 141.417H110.098C110.088 142.365 110.306 143.302 110.732 144.152C111.085 144.876 111.641 145.485 112.335 145.908C113.029 146.331 113.832 146.55 114.649 146.538C115.162 146.543 115.674 146.478 116.169 146.346C116.641 146.212 117.09 146.01 117.501 145.747C117.918 145.483 118.316 145.189 118.691 144.87C119.05 144.558 119.526 144.136 120.098 143.603C120.39 143.385 120.752 143.279 121.117 143.303C121.537 143.285 121.95 143.421 122.274 143.685C122.419 143.825 122.532 143.995 122.604 144.183C122.676 144.371 122.706 144.571 122.691 144.771C122.658 145.285 122.488 145.781 122.199 146.21C121.811 146.827 121.308 147.365 120.716 147.797C119.957 148.349 119.111 148.774 118.211 149.056C117.094 149.406 115.926 149.575 114.753 149.556C111.775 149.556 109.46 148.722 107.809 147.055C106.159 145.388 105.332 143.126 105.329 140.269C105.317 138.996 105.525 137.731 105.943 136.526C106.318 135.427 106.926 134.418 107.726 133.566C108.53 132.729 109.516 132.083 110.611 131.676C111.826 131.224 113.116 131 114.415 131.015C116.043 130.969 117.654 131.358 119.075 132.139C120.308 132.821 121.321 133.83 121.998 135.05C122.621 136.164 122.952 137.412 122.963 138.683C122.963 139.831 122.629 140.573 121.961 140.909C121.08 141.288 120.123 141.462 119.163 141.417V141.417ZM110.098 138.834H118.503C118.39 137.28 117.96 136.116 117.221 135.341C116.845 134.957 116.389 134.655 115.886 134.456C115.382 134.257 114.841 134.164 114.298 134.185C113.766 134.169 113.237 134.265 112.747 134.468C112.256 134.67 111.816 134.973 111.455 135.357C110.711 136.142 110.259 137.301 110.098 138.834Z" fill="#F15E22"/>
<path d="M141.816 143.602C141.87 144.754 141.538 145.892 140.871 146.842C140.205 147.792 139.24 148.501 138.125 148.863C136.699 149.357 135.194 149.592 133.682 149.555C132.218 149.591 130.763 149.336 129.402 148.805C128.372 148.418 127.465 147.77 126.771 146.927C126.25 146.283 125.957 145.49 125.936 144.668C125.932 144.429 125.979 144.192 126.072 143.971C126.165 143.75 126.304 143.551 126.479 143.385C126.659 143.208 126.873 143.07 127.11 142.978C127.346 142.887 127.599 142.844 127.853 142.852C128.258 142.827 128.659 142.951 128.976 143.2C129.277 143.487 129.529 143.819 129.723 144.184C130.128 144.921 130.714 145.546 131.427 146.005C132.258 146.443 133.195 146.65 134.137 146.603C134.944 146.637 135.742 146.425 136.421 145.997C136.676 145.856 136.891 145.654 137.047 145.411C137.202 145.167 137.293 144.889 137.311 144.602C137.334 144.256 137.261 143.909 137.098 143.601C136.935 143.292 136.69 143.033 136.388 142.852C135.427 142.363 134.401 142.009 133.34 141.802C132.009 141.496 130.706 141.084 129.444 140.572C128.518 140.2 127.695 139.62 127.039 138.879C126.429 138.154 126.11 137.235 126.141 136.296C126.146 135.371 126.437 134.47 126.976 133.713C127.592 132.852 128.441 132.179 129.427 131.769C130.665 131.255 132 131.008 133.344 131.043C134.433 131.031 135.519 131.155 136.576 131.412C137.423 131.609 138.233 131.94 138.972 132.392C139.548 132.746 140.044 133.212 140.43 133.762C140.741 134.192 140.915 134.703 140.931 135.23C140.939 135.469 140.896 135.707 140.804 135.928C140.712 136.149 140.573 136.349 140.396 136.513C140.184 136.694 139.938 136.832 139.671 136.918C139.405 137.005 139.123 137.039 138.843 137.017C138.403 137.025 137.974 136.88 137.632 136.607C137.207 136.248 136.822 135.846 136.484 135.406C136.142 134.972 135.717 134.61 135.231 134.34C134.633 134.043 133.967 133.901 133.298 133.93C132.565 133.901 131.839 134.083 131.21 134.455C130.965 134.581 130.759 134.768 130.613 134.998C130.466 135.228 130.384 135.492 130.375 135.763C130.372 135.993 130.427 136.22 130.534 136.425C130.641 136.631 130.797 136.807 130.989 136.939C131.487 137.287 132.044 137.543 132.634 137.698C133.327 137.895 134.275 138.141 135.486 138.432C136.707 138.699 137.891 139.112 139.01 139.662C139.83 140.059 140.545 140.639 141.098 141.355C141.577 142.009 141.829 142.797 141.816 143.602Z" fill="#F15E22"/>
<path d="M145.991 131.45H146.501V128.716C146.501 127.982 146.5 127.408 146.559 126.989C146.587 126.611 146.701 126.244 146.893 125.915C147.08 125.598 147.349 125.337 147.674 125.157C148.018 124.958 148.411 124.856 148.81 124.862C149.408 124.864 149.981 125.099 150.405 125.513C150.717 125.793 150.929 126.164 151.01 126.571C151.107 127.158 151.149 127.752 151.135 128.347V131.45H152.835C153.377 131.413 153.913 131.577 154.338 131.91C154.507 132.056 154.641 132.236 154.73 132.439C154.82 132.642 154.863 132.861 154.856 133.082C154.878 133.344 154.819 133.607 154.687 133.835C154.555 134.064 154.357 134.249 154.117 134.366C153.45 134.644 152.728 134.771 152.004 134.735H151.135V143.103C151.126 143.651 151.153 144.198 151.215 144.743C151.25 145.089 151.396 145.415 151.632 145.674C151.775 145.805 151.946 145.906 152.131 145.968C152.317 146.03 152.514 146.053 152.71 146.034C153.082 146.022 153.453 145.974 153.816 145.891C154.173 145.81 154.536 145.764 154.902 145.752C155.092 145.754 155.279 145.794 155.453 145.87C155.626 145.945 155.783 146.054 155.912 146.19C156.06 146.333 156.176 146.504 156.253 146.692C156.331 146.88 156.368 147.082 156.363 147.285C156.363 148.018 155.955 148.578 155.14 148.966C154.324 149.354 153.152 149.55 151.624 149.552C150.175 149.552 149.077 149.31 148.329 148.835C147.601 148.381 147.076 147.671 146.864 146.85C146.601 145.742 146.483 144.605 146.513 143.468V134.735H145.903C145.352 134.772 144.807 134.605 144.375 134.267C144.205 134.119 144.07 133.936 143.98 133.732C143.89 133.527 143.847 133.305 143.853 133.082C143.848 132.858 143.894 132.636 143.99 132.433C144.085 132.23 144.227 132.051 144.404 131.91C144.862 131.577 145.424 131.415 145.991 131.45V131.45Z" fill="#F15E22"/>
<path d="M138.955 47.1748C138.786 46.5946 138.501 46.0529 138.118 45.5807C137.735 45.1084 137.262 44.7148 136.724 44.4224C136.186 44.13 135.595 43.9445 134.984 43.8765C134.373 43.8084 133.755 43.8592 133.164 44.0259C133.051 44.0546 121.89 46.9657 115.848 40.672C113.944 38.6834 111.793 35.7518 109.517 32.6235C103.459 24.3207 96.1764 14.3492 85.9295 11.1143C86.7291 12.6155 86.9988 14.3348 86.6966 16.0027C86.3943 17.6707 85.5371 19.193 84.2593 20.3313C91.078 23.1358 96.786 30.9342 101.922 37.9823C104.386 41.3567 106.711 44.5425 109.041 46.978C114.432 52.6033 121.568 53.9482 127.126 53.9482C130.037 53.9582 132.938 53.6027 135.757 52.8903C136.35 52.7226 136.903 52.4414 137.385 52.063C137.867 51.6846 138.269 51.2163 138.566 50.6852C138.863 50.1541 139.05 49.5706 139.117 48.9682C139.184 48.3657 139.129 47.7563 138.955 47.1748V47.1748Z" fill="#F15E22"/>
<path d="M58.9928 6.9005C58.9937 8.26645 58.5819 9.60195 57.8095 10.738C57.0372 11.8741 55.939 12.7597 54.654 13.2828C53.3689 13.8059 51.9548 13.943 50.5903 13.6767C49.2259 13.4104 47.9726 12.7528 46.989 11.7869C46.0053 10.821 45.3355 9.59035 45.0644 8.25061C44.7932 6.91086 44.9328 5.52224 45.4655 4.26043C45.9982 2.99861 46.9002 1.9203 48.0572 1.16193C49.2141 0.403555 50.5742 -0.000809675 51.9653 1.2172e-06C53.8288 0.00108747 55.6156 0.728448 56.9333 2.02231C58.251 3.31616 58.9917 5.07071 58.9928 6.9005" fill="#293C74"/>
<path d="M78.9979 10.0333C79.6252 10.0149 80.2499 10.1204 80.8349 10.3434C81.42 10.5664 81.9535 10.9025 82.4038 11.3316C82.8541 11.7608 83.2121 12.2744 83.4566 12.842C83.7011 13.4095 83.827 14.0195 83.827 14.6357C83.827 15.2519 83.7011 15.8619 83.4566 16.4294C83.2121 16.9969 82.8541 17.5105 82.4038 17.9397C81.9535 18.3689 81.42 18.705 80.8349 18.928C80.2499 19.151 79.6252 19.2564 78.9979 19.2381C69.7782 19.2381 62.5085 29.189 56.099 37.9715C53.6354 41.3459 51.3096 44.5317 48.9755 46.9671C43.5889 52.5925 36.4487 53.9373 30.8952 53.9373C27.984 53.9474 25.0835 53.5919 22.2642 52.8795C21.1867 52.5672 20.2591 51.8853 19.6504 50.958C19.0417 50.0308 18.7923 48.9197 18.9476 47.8271C19.1029 46.7345 19.6525 45.7329 20.4965 45.0047C21.3405 44.2765 22.4226 43.87 23.5461 43.8592C23.9863 43.8537 24.4251 43.9103 24.8489 44.0274C26.837 44.4984 28.8751 44.7351 30.9202 44.7326C34.5446 44.7326 39.0334 43.9413 42.1609 40.6735C44.0691 38.6849 46.2196 35.7533 48.4953 32.6249C55.836 22.5633 64.9763 10.0456 79.0105 10.0456" fill="#293C74"/>
<path d="M23.5505 19.238C31.4173 19.238 37.8602 26.4788 43.5599 34.0558C44.3324 33.0307 45.1299 31.9401 45.9442 30.8249C47.0215 29.3447 48.1447 27.8113 49.3181 26.2656C42.7874 17.9587 34.7035 10.0332 23.5505 10.0332C22.3316 10.0689 21.1748 10.5695 20.3255 11.4287C19.4762 12.2879 19.0012 13.4382 19.0012 14.6356C19.0012 15.833 19.4762 16.9832 20.3255 17.8425C21.1748 18.7017 22.3316 19.2022 23.5505 19.238Z" fill="#293C74"/>
<path d="M77.7122 44.027C77.6036 44.0557 66.4381 46.9668 60.4002 40.6731C59.9826 40.2221 59.5233 39.7219 59.0682 39.1807L58.6506 39.7711C56.8384 42.2517 55.1014 44.6256 53.3518 46.7413L53.5856 46.9914C58.9722 52.6167 66.1124 53.9616 71.6701 53.9616C74.5812 53.9712 77.4817 53.6157 80.3011 52.9037C80.8946 52.7368 81.449 52.4568 81.9323 52.0795C82.4157 51.7022 82.8186 51.2352 83.1181 50.705C83.4176 50.1749 83.6079 49.5919 83.678 48.9896C83.7481 48.3872 83.6967 47.7772 83.5267 47.1943C83.3567 46.6115 83.0715 46.0672 82.6873 45.5926C82.3031 45.118 81.8274 44.7223 81.2875 44.4282C80.7476 44.1341 80.1539 43.9473 79.5405 43.8785C78.927 43.8096 78.3058 43.8601 77.7122 44.027Z" fill="#293C74"/>
</svg>
