<svg width="182" height="175" viewBox="0 0 182 175" fill="none" xmlns="http://www.w3.org/2000/svg">
<path d="M2.76795 126.51L15.2021 108.352L4.73956 92.2005C3.90593 90.9101 3.1653 89.5618 2.52329 88.1661C2.05384 87.1484 1.80221 86.0439 1.78453 84.9233C1.7972 84.3671 1.9328 83.8205 2.18161 83.3229C2.43043 82.8253 2.78629 82.3889 3.22366 82.045C4.17118 81.2002 5.40367 80.746 6.67279 80.7738C7.34571 80.734 8.01948 80.8364 8.65014 81.0745C9.28081 81.3125 9.85422 81.6808 10.333 82.1553C11.6913 83.7563 12.9034 85.4758 13.9548 87.2931L22.3114 100.807L31.2197 87.3123C31.9536 86.1753 32.5772 85.2015 33.1001 84.3956C33.5408 83.6842 34.0415 83.0117 34.5968 82.3856C35.0433 81.8776 35.5928 81.4705 36.2087 81.1911C36.8598 80.9122 37.5633 80.7764 38.2714 80.793C39.5501 80.7415 40.7971 81.1986 41.7397 82.0642C42.1655 82.4418 42.506 82.9058 42.7384 83.4252C42.9709 83.9447 43.0899 84.5077 43.0877 85.0768C43.0877 86.7686 42.1139 89.068 40.1663 91.975L29.2145 108.352L41.001 126.51C41.8697 127.771 42.6426 129.095 43.3132 130.472C43.7642 131.402 44.0096 132.418 44.0328 133.451C44.044 134.305 43.8204 135.145 43.3864 135.88C42.9524 136.615 42.3247 137.217 41.5718 137.62C40.7561 138.055 39.8434 138.276 38.919 138.262C37.9766 138.293 37.0439 138.064 36.2231 137.6C35.5193 137.183 34.9125 136.621 34.4433 135.95C33.9892 135.291 33.1433 134.012 31.9056 132.113L22.1051 116.752L11.7146 132.583C10.9087 133.844 10.333 134.732 9.99241 135.235C9.62933 135.766 9.21651 136.261 8.75954 136.713C8.26944 137.199 7.6894 137.585 7.05177 137.85C6.31691 138.143 5.53051 138.285 4.73956 138.267C3.48901 138.308 2.27197 137.859 1.34799 137.015C0.449329 136.184 0 134.972 0 133.379C0 131.505 0.922655 129.215 2.76795 126.51Z" fill="#293C74"/>
<path d="M77.1473 132.424C74.9329 134.2 72.4922 135.673 69.8893 136.804C67.3884 137.801 64.714 138.291 62.022 138.243C59.5972 138.297 57.196 137.757 55.0278 136.67C53.1133 135.708 51.5051 134.231 50.3842 132.405C49.3085 130.649 48.7437 128.627 48.7532 126.567C48.6928 123.899 49.6557 121.309 51.4444 119.328C53.2385 117.333 55.7026 115.993 58.8367 115.308C59.4955 115.155 61.1265 114.814 63.7298 114.286C66.333 113.759 68.5637 113.279 70.4217 112.847C72.2798 112.406 74.2946 111.87 76.4661 111.24C76.3414 108.519 75.7913 106.518 74.8159 105.239C73.8405 103.96 71.8257 103.32 68.7715 103.32C66.1427 103.32 64.1647 103.686 62.8375 104.419C61.443 105.217 60.2704 106.352 59.4268 107.719C58.8053 108.712 58.1345 109.672 57.4168 110.597C57.0234 111.077 56.1839 111.298 54.8935 111.298C53.7843 111.318 52.7082 110.919 51.8809 110.18C51.4681 109.825 51.1401 109.383 50.9209 108.885C50.7018 108.387 50.597 107.846 50.6144 107.302C50.65 105.368 51.3247 103.501 52.5333 101.991C53.8125 100.274 55.8209 98.8589 58.5585 97.746C61.296 96.6331 64.7004 96.0926 68.7715 96.1246C73.3192 96.1246 76.8947 96.6618 79.4979 97.7364C81.9315 98.6541 83.9108 100.485 85.0146 102.841C86.0892 105.166 86.6264 108.248 86.6264 112.089C86.6264 114.517 86.6264 116.578 86.6264 118.273C86.6264 119.968 86.6072 121.85 86.5689 123.919C86.5832 125.983 86.9066 128.034 87.5283 130.002C88.1711 132.113 88.4877 133.475 88.4877 134.079C88.4635 134.639 88.317 135.187 88.0584 135.684C87.7999 136.182 87.4355 136.616 86.991 136.958C86.0625 137.8 84.853 138.265 83.5994 138.262C82.5377 138.262 81.4887 137.764 80.4525 136.766C79.1777 135.459 78.0677 134.001 77.1473 132.424V132.424ZM76.4661 117.453C74.3021 118.184 72.0922 118.772 69.8509 119.213C66.9726 119.83 64.9706 120.286 63.8449 120.58C62.6692 120.903 61.5807 121.485 60.6596 122.283C60.1527 122.719 59.7524 123.265 59.4896 123.88C59.2268 124.494 59.1085 125.161 59.1437 125.828C59.1342 126.584 59.2883 127.333 59.5955 128.024C59.9027 128.714 60.3557 129.33 60.9235 129.829C62.2051 130.963 63.8769 131.554 65.5863 131.479C67.5529 131.495 69.4937 131.032 71.2421 130.131C72.8221 129.37 74.1458 128.165 75.051 126.663C75.9848 125.096 76.4517 122.518 76.4517 118.93L76.4661 117.453Z" fill="#293C74"/>
<path d="M106.53 101.91V103.157C108.103 100.976 110.143 99.1728 112.502 97.8803C114.81 96.7218 117.365 96.1423 119.947 96.1917C122.5 96.1483 125.021 96.7628 127.268 97.9762C129.356 99.1112 131.035 100.875 132.065 103.018C132.753 104.29 133.203 105.677 133.393 107.11C133.618 108.972 133.718 110.847 133.696 112.723V131.978C133.696 134.051 133.216 135.618 132.257 136.679C131.776 137.186 131.197 137.589 130.555 137.863C129.913 138.137 129.221 138.276 128.523 138.273C127.825 138.269 127.135 138.122 126.496 137.842C125.857 137.561 125.282 137.152 124.807 136.641C123.847 135.557 123.367 134.003 123.367 131.978V114.709C123.367 111.293 122.888 108.683 121.928 106.88C120.969 105.076 119.104 104.177 116.335 104.184C114.521 104.173 112.752 104.75 111.293 105.829C109.742 106.967 108.572 108.547 107.935 110.362C107.43 111.904 107.177 114.782 107.177 118.997V131.949C107.177 134.051 106.697 135.624 105.738 136.67C105.259 137.188 104.675 137.596 104.024 137.868C103.374 138.139 102.672 138.267 101.968 138.243C101.272 138.262 100.58 138.125 99.9436 137.843C99.3071 137.561 98.7416 137.141 98.2881 136.612C97.3287 135.528 96.849 133.974 96.849 131.949V102.059C96.849 100.087 97.2759 98.6142 98.1394 97.6452C98.5838 97.1604 99.1299 96.7799 99.7387 96.5311C100.347 96.2823 101.004 96.1713 101.66 96.2061C102.526 96.1942 103.378 96.4181 104.126 96.8537C104.887 97.3108 105.499 97.9769 105.892 98.7726C106.35 99.7528 106.569 100.828 106.53 101.91V101.91Z" fill="#293C74"/>
<path d="M170.178 132.424C167.963 134.2 165.523 135.673 162.92 136.804C160.419 137.801 157.744 138.291 155.053 138.243C152.628 138.297 150.227 137.757 148.058 136.67C146.144 135.708 144.536 134.231 143.415 132.405C142.339 130.649 141.774 128.627 141.784 126.567C141.723 123.899 142.686 121.309 144.475 119.328C146.269 117.333 148.735 115.993 151.872 115.308C152.512 115.155 154.141 114.814 156.76 114.287C159.36 113.754 161.596 113.27 163.476 112.847C165.357 112.425 167.348 111.888 169.521 111.24C169.396 108.509 168.846 106.506 167.87 105.23C166.911 103.954 164.882 103.311 161.826 103.311C159.197 103.311 157.219 103.677 155.892 104.409C154.498 105.209 153.326 106.343 152.481 107.71C151.86 108.702 151.189 109.663 150.471 110.588C150.078 111.068 149.238 111.288 147.953 111.288C146.842 111.31 145.764 110.91 144.935 110.171C144.523 109.816 144.195 109.373 143.975 108.875C143.756 108.377 143.652 107.836 143.669 107.292C143.704 105.359 144.379 103.492 145.588 101.982C146.867 100.265 148.875 98.8494 151.613 97.7365C154.351 96.6236 157.747 96.0863 161.802 96.1247C166.35 96.1247 169.925 96.6619 172.528 97.7365C174.962 98.6542 176.941 100.486 178.045 102.841C179.12 105.166 179.657 108.249 179.657 112.089C179.657 114.517 179.657 116.578 179.657 118.273C179.657 119.966 179.628 121.847 179.599 123.919C179.616 125.983 179.939 128.033 180.559 130.002C181.202 132.113 181.518 133.475 181.518 134.079C181.494 134.639 181.348 135.187 181.089 135.685C180.83 136.182 180.466 136.616 180.022 136.958C179.093 137.8 177.884 138.265 176.63 138.263C175.571 138.263 174.522 137.764 173.483 136.766C172.208 135.459 171.098 134.001 170.178 132.424V132.424ZM169.497 117.453C167.328 118.185 165.113 118.773 162.867 119.213C159.989 119.83 157.987 120.286 156.861 120.58C155.685 120.903 154.597 121.485 153.676 122.283C153.169 122.719 152.769 123.265 152.506 123.88C152.243 124.494 152.125 125.161 152.16 125.828C152.15 126.584 152.304 127.333 152.612 128.024C152.919 128.714 153.372 129.33 153.94 129.829C155.221 130.963 156.893 131.554 158.602 131.479C160.585 131.502 162.543 131.04 164.306 130.131C165.886 129.37 167.21 128.165 168.115 126.663C169.052 125.096 169.519 122.518 169.516 118.93L169.497 117.453Z" fill="#293C74"/>
<path d="M11.8057 170.178L7.21966 151.949V171.694C7.28487 172.574 7.02548 173.448 6.49049 174.15C6.2407 174.406 5.94227 174.609 5.61274 174.748C5.2832 174.887 4.92922 174.958 4.57164 174.958C4.21406 174.958 3.86009 174.887 3.53056 174.748C3.20102 174.609 2.90258 174.406 2.65279 174.15C2.10503 173.45 1.8397 172.57 1.90924 171.684V149.075C1.90924 147.823 2.23545 146.984 2.86867 146.547C3.66268 146.074 4.5792 145.847 5.50228 145.895H7.29641C8.09103 145.854 8.88666 145.953 9.647 146.187C9.88786 146.283 10.1076 146.424 10.2936 146.605C10.4796 146.785 10.6283 147 10.7311 147.238C11.0628 148.042 11.3307 148.872 11.5323 149.718L15.6866 165.381L19.8409 149.718C20.0402 148.871 20.3081 148.042 20.642 147.238C20.7448 147 20.8935 146.785 21.0795 146.605C21.2656 146.424 21.4853 146.283 21.7261 146.187C22.4864 145.952 23.2821 145.853 24.0767 145.895H25.8709C26.7939 145.847 27.7105 146.074 28.5045 146.547C29.1521 146.984 29.4639 147.823 29.4639 149.075V171.703C29.53 172.584 29.2687 173.459 28.7299 174.159C28.4845 174.432 28.1817 174.647 27.8433 174.789C27.5049 174.931 27.1393 174.996 26.7727 174.98C26.4161 174.99 26.0617 174.921 25.7343 174.78C25.4069 174.638 25.1146 174.426 24.8779 174.159C24.3354 173.461 24.072 172.585 24.1391 171.703V151.958L19.553 170.187C19.2556 171.374 19.0126 172.242 18.8239 172.792C18.6132 173.379 18.2526 173.899 17.7781 174.303C17.1873 174.788 16.4354 175.033 15.6722 174.989C15.0695 175.008 14.4739 174.855 13.9548 174.548C13.5033 174.27 13.1276 173.884 12.8611 173.425C12.5915 172.951 12.385 172.443 12.247 171.914C12.1127 171.353 11.9592 170.777 11.8057 170.178Z" fill="#F15E22"/>
<path d="M49.9188 165.457H39.5043C39.4951 166.567 39.7465 167.663 40.2382 168.657C40.6414 169.504 41.2794 170.217 42.0762 170.712C42.873 171.207 43.7952 171.463 44.7331 171.449C45.3228 171.454 45.9104 171.379 46.4793 171.223C47.0212 171.067 47.537 170.831 48.0096 170.523C48.4889 170.214 48.9458 169.871 49.3767 169.497C49.7893 169.132 50.3362 168.638 50.9934 168.014C51.3284 167.76 51.7442 167.636 52.1639 167.664C52.6469 167.642 53.1207 167.801 53.4927 168.11C53.6641 168.273 53.7981 168.47 53.8851 168.69C53.9721 168.91 54.0101 169.146 53.9964 169.381C53.9586 169.983 53.7634 170.563 53.4303 171.065C52.9857 171.786 52.4077 172.417 51.7273 172.922C50.8554 173.567 49.8829 174.065 48.8491 174.394C47.5656 174.804 46.224 175.002 44.877 174.98C41.4583 174.98 38.7991 174.004 36.8994 172.053C34.9998 170.103 34.0515 167.456 34.0547 164.114C34.0485 162.623 34.2951 161.143 34.7839 159.734C35.2168 158.449 35.9146 157.269 36.8323 156.271C37.7556 155.292 38.889 154.536 40.1471 154.059C41.5426 153.531 43.025 153.269 44.5173 153.287C46.3878 153.233 48.238 153.687 49.8708 154.601C51.2873 155.4 52.4509 156.58 53.2288 158.007C53.9445 159.311 54.3253 160.771 54.337 162.258C54.337 163.601 53.9532 164.469 53.1856 164.862C52.1588 165.315 51.0394 165.519 49.9188 165.457V165.457ZM39.5043 162.435H49.1753C49.0457 160.617 48.5516 159.255 47.7025 158.348C47.2699 157.898 46.747 157.545 46.1683 157.312C45.5896 157.079 44.968 156.971 44.3446 156.995C43.7335 156.977 43.1257 157.09 42.5621 157.326C41.9985 157.563 41.4923 157.918 41.0777 158.367C40.2142 159.285 39.6898 160.641 39.5043 162.435V162.435Z" fill="#F15E22"/>
<path d="M73.3863 171.919V171.396C72.7543 172.135 72.0451 172.804 71.2708 173.392C70.5857 173.904 69.8206 174.3 69.0065 174.562C68.1464 174.839 67.2475 174.975 66.3441 174.965C65.1171 174.974 63.9049 174.696 62.8039 174.155C61.704 173.604 60.7417 172.814 59.988 171.842C59.1671 170.791 58.5548 169.593 58.1842 168.312C57.7631 166.887 57.5561 165.408 57.5702 163.922C57.5702 160.593 58.3825 157.999 60.0071 156.141C60.8041 155.226 61.7963 154.502 62.9104 154.021C64.0246 153.54 65.2324 153.316 66.4449 153.364C67.7824 153.323 69.1109 153.594 70.3258 154.155C71.4919 154.77 72.5357 155.592 73.4055 156.583V148.72C73.3456 147.845 73.5767 146.975 74.0627 146.245C74.2826 145.966 74.5667 145.744 74.8907 145.597C75.2147 145.451 75.5691 145.385 75.924 145.405C76.2724 145.385 76.621 145.444 76.9434 145.578C77.2658 145.711 77.5536 145.917 77.7853 146.178C78.2648 146.833 78.496 147.637 78.4377 148.447V171.953C78.5022 172.775 78.2519 173.591 77.7373 174.236C77.5077 174.486 77.2268 174.684 76.9139 174.815C76.601 174.947 76.2633 175.01 75.924 174.999C75.5836 175.007 75.2456 174.941 74.9338 174.804C74.6221 174.667 74.3443 174.464 74.1203 174.207C73.5925 173.566 73.3299 172.748 73.3863 171.919V171.919ZM62.9142 164.1C62.8781 165.361 63.1069 166.616 63.5858 167.784C63.9642 168.711 64.6043 169.508 65.4279 170.077C66.184 170.584 67.0745 170.853 67.9847 170.849C68.8931 170.857 69.7843 170.602 70.5512 170.115C71.3765 169.568 72.0209 168.789 72.4029 167.875C72.8985 166.68 73.134 165.393 73.0937 164.1C73.1257 162.845 72.8902 161.597 72.4029 160.44C72.0068 159.502 71.3594 158.692 70.532 158.099C69.7736 157.57 68.8707 157.289 67.9464 157.293C67.0089 157.279 66.092 157.569 65.3319 158.118C64.5208 158.731 63.9017 159.563 63.5474 160.516C63.1043 161.663 62.8893 162.885 62.9142 164.114V164.1Z" fill="#F15E22"/>
<path d="M86.4584 150.85C85.7556 150.869 85.0711 150.624 84.5396 150.164C84.2874 149.917 84.087 149.622 83.9502 149.296C83.8134 148.97 83.743 148.62 83.743 148.267C83.743 147.914 83.8134 147.564 83.9502 147.238C84.087 146.912 84.2874 146.617 84.5396 146.37C85.0523 145.896 85.7266 145.635 86.4249 145.64C87.0953 145.634 87.7456 145.869 88.2574 146.302C88.5263 146.542 88.738 146.838 88.8767 147.171C89.0154 147.503 89.0775 147.862 89.0585 148.221C89.0772 148.579 89.0168 148.936 88.8816 149.268C88.7465 149.6 88.5399 149.897 88.2766 150.14C87.7815 150.597 87.1322 150.851 86.4584 150.85V150.85ZM89.0921 156.348V171.742C89.151 172.609 88.8783 173.466 88.3293 174.14C88.0867 174.406 87.7899 174.617 87.4589 174.758C87.1278 174.9 86.7704 174.969 86.4105 174.96C86.048 174.975 85.6869 174.907 85.3546 174.761C85.0222 174.616 84.7272 174.397 84.4916 174.121C83.9634 173.438 83.7039 172.584 83.7625 171.722V156.506C83.6917 155.643 83.9525 154.785 84.4916 154.107C84.7338 153.842 85.031 153.633 85.3625 153.495C85.6939 153.356 86.0516 153.292 86.4105 153.306C86.7686 153.298 87.1245 153.365 87.455 153.503C87.7856 153.641 88.0834 153.847 88.3293 154.107C88.5975 154.412 88.8028 154.767 88.9337 155.152C89.0646 155.536 89.1184 155.942 89.0921 156.348V156.348Z" fill="#F15E22"/>
<path d="M101.593 166.455H95.429C94.6615 166.508 93.9014 166.275 93.2943 165.803C93.0557 165.593 92.8665 165.332 92.7404 165.04C92.6144 164.748 92.5545 164.432 92.5652 164.114C92.5529 163.795 92.61 163.477 92.7326 163.182C92.8552 162.887 93.0403 162.623 93.2751 162.406C93.8858 161.926 94.6546 161.693 95.429 161.754H101.593C102.369 161.693 103.14 161.925 103.752 162.406C103.975 162.629 104.153 162.894 104.274 163.185C104.394 163.477 104.457 163.789 104.457 164.105C104.457 164.42 104.394 164.732 104.274 165.024C104.153 165.315 103.975 165.58 103.752 165.803C103.139 166.282 102.369 166.515 101.593 166.455V166.455Z" fill="#F15E22"/>
<path d="M108.18 153.796H108.765V150.596C108.765 149.737 108.765 149.066 108.832 148.576C108.863 148.134 108.992 147.705 109.211 147.319C109.426 146.949 109.735 146.642 110.108 146.432C110.505 146.2 110.958 146.081 111.418 146.087C112.105 146.091 112.763 146.365 113.25 146.849C113.608 147.177 113.85 147.611 113.941 148.087C114.057 148.773 114.106 149.469 114.09 150.164V153.796H116.037C116.66 153.75 117.277 153.942 117.764 154.333C117.958 154.504 118.112 154.715 118.215 154.952C118.318 155.19 118.367 155.447 118.359 155.705C118.384 156.011 118.317 156.318 118.166 156.586C118.014 156.854 117.786 157.07 117.51 157.206C116.745 157.534 115.914 157.681 115.083 157.638H114.09V167.429C114.081 168.07 114.109 168.711 114.176 169.348C114.217 169.753 114.385 170.134 114.656 170.437C114.82 170.591 115.016 170.708 115.229 170.781C115.443 170.854 115.669 170.881 115.894 170.859C116.32 170.844 116.744 170.788 117.16 170.691C117.57 170.597 117.987 170.542 118.407 170.528C118.625 170.53 118.841 170.577 119.041 170.665C119.24 170.753 119.42 170.881 119.568 171.041C119.737 171.208 119.871 171.408 119.96 171.628C120.049 171.848 120.092 172.085 120.086 172.322C120.086 173.181 119.607 173.838 118.681 174.289C117.755 174.74 116.402 174.975 114.646 174.975C112.982 174.975 111.72 174.692 110.861 174.135C110.024 173.604 109.421 172.774 109.173 171.814C108.872 170.517 108.739 169.187 108.775 167.856V157.638H108.069C107.436 157.682 106.81 157.487 106.314 157.091C106.118 156.919 105.962 156.705 105.857 156.465C105.753 156.226 105.702 155.966 105.709 155.705C105.703 155.443 105.757 155.183 105.866 154.945C105.976 154.707 106.139 154.498 106.343 154.333C106.872 153.942 107.523 153.752 108.18 153.796V153.796Z" fill="#F15E22"/>
<path d="M136.9 165.457H126.486C126.475 166.566 126.725 167.662 127.215 168.657C127.62 169.504 128.259 170.216 129.056 170.711C129.854 171.206 130.776 171.462 131.714 171.449C132.304 171.454 132.892 171.379 133.461 171.223C134.003 171.067 134.518 170.831 134.991 170.523C135.47 170.214 135.927 169.871 136.358 169.497C136.771 169.132 137.318 168.638 137.975 168.014C138.31 167.76 138.726 167.636 139.145 167.664C139.628 167.642 140.102 167.801 140.474 168.11C140.641 168.275 140.771 168.474 140.853 168.693C140.936 168.913 140.971 169.147 140.954 169.381C140.916 169.983 140.721 170.563 140.388 171.065C139.943 171.786 139.365 172.417 138.685 172.922C137.813 173.567 136.84 174.065 135.806 174.394C134.523 174.804 133.181 175.002 131.834 174.98C128.412 174.98 125.753 174.004 123.857 172.053C121.96 170.103 121.011 167.456 121.007 164.114C120.993 162.625 121.232 161.144 121.713 159.734C122.144 158.448 122.842 157.268 123.761 156.271C124.684 155.292 125.818 154.536 127.076 154.059C128.471 153.531 129.954 153.269 131.446 153.287C133.316 153.233 135.167 153.687 136.799 154.601C138.216 155.4 139.379 156.58 140.157 158.007C140.873 159.311 141.254 160.771 141.266 162.258C141.266 163.601 140.882 164.469 140.114 164.862C139.103 165.306 138.003 165.51 136.9 165.457V165.457ZM126.486 162.435H136.142C136.013 160.617 135.519 159.255 134.67 158.348C134.237 157.898 133.714 157.545 133.135 157.312C132.557 157.079 131.935 156.971 131.312 156.995C130.701 156.977 130.093 157.09 129.529 157.326C128.965 157.563 128.459 157.918 128.045 158.367C127.191 159.285 126.671 160.641 126.486 162.435Z" fill="#F15E22"/>
<path d="M162.925 168.014C162.986 169.362 162.605 170.694 161.839 171.805C161.074 172.916 159.966 173.746 158.684 174.169C157.046 174.747 155.316 175.022 153.58 174.98C151.898 175.022 150.226 174.723 148.663 174.102C147.479 173.648 146.437 172.89 145.641 171.905C145.042 171.151 144.705 170.223 144.681 169.261C144.677 168.982 144.73 168.704 144.837 168.446C144.944 168.188 145.104 167.954 145.305 167.76C145.511 167.554 145.758 167.392 146.029 167.285C146.301 167.177 146.591 167.127 146.883 167.136C147.349 167.107 147.809 167.252 148.173 167.544C148.519 167.88 148.809 168.269 149.032 168.695C149.497 169.557 150.17 170.289 150.989 170.825C151.944 171.338 153.021 171.58 154.103 171.526C155.03 171.566 155.946 171.318 156.727 170.816C157.02 170.651 157.267 170.415 157.446 170.13C157.624 169.846 157.728 169.52 157.749 169.185C157.776 168.779 157.691 168.374 157.504 168.012C157.318 167.651 157.035 167.348 156.688 167.136C155.585 166.564 154.406 166.151 153.186 165.908C151.658 165.55 150.161 165.069 148.711 164.469C147.648 164.033 146.701 163.355 145.948 162.488C145.247 161.64 144.881 160.565 144.916 159.466C144.922 158.384 145.256 157.33 145.876 156.444C146.583 155.437 147.559 154.649 148.692 154.17C150.114 153.569 151.648 153.279 153.191 153.321C154.442 153.306 155.69 153.451 156.904 153.752C157.878 153.983 158.808 154.37 159.658 154.899C160.319 155.313 160.889 155.858 161.332 156.501C161.689 157.004 161.889 157.602 161.908 158.218C161.918 158.498 161.868 158.776 161.762 159.035C161.656 159.294 161.497 159.528 161.294 159.72C161.05 159.932 160.767 160.093 160.461 160.194C160.154 160.296 159.831 160.335 159.509 160.31C159.003 160.32 158.51 160.15 158.118 159.83C157.629 159.41 157.187 158.939 156.799 158.425C156.407 157.918 155.917 157.494 155.36 157.178C154.673 156.83 153.908 156.664 153.138 156.698C152.296 156.664 151.462 156.877 150.74 157.312C150.459 157.459 150.222 157.679 150.054 157.947C149.885 158.216 149.791 158.525 149.78 158.842C149.777 159.112 149.84 159.378 149.963 159.618C150.086 159.858 150.265 160.064 150.486 160.219C151.058 160.625 151.698 160.926 152.376 161.106C153.172 161.337 154.261 161.624 155.652 161.965C157.056 162.277 158.415 162.761 159.701 163.404C160.643 163.869 161.465 164.548 162.1 165.385C162.65 166.15 162.939 167.072 162.925 168.014Z" fill="#F15E22"/>
<path d="M167.722 153.796H168.307V150.596C168.307 149.737 168.307 149.066 168.374 148.576C168.406 148.134 168.537 147.704 168.758 147.32C168.972 146.949 169.282 146.643 169.655 146.432C170.05 146.2 170.501 146.081 170.96 146.087C171.647 146.09 172.305 146.364 172.792 146.849C173.151 147.177 173.395 147.611 173.488 148.087C173.599 148.774 173.647 149.469 173.632 150.164V153.796H175.584C176.207 153.752 176.823 153.944 177.311 154.333C177.505 154.504 177.659 154.715 177.762 154.952C177.865 155.19 177.914 155.447 177.906 155.705C177.931 156.011 177.864 156.318 177.712 156.586C177.561 156.854 177.333 157.07 177.057 157.206C176.291 157.533 175.461 157.68 174.63 157.638H173.632V167.429C173.621 168.07 173.652 168.711 173.723 169.348C173.763 169.753 173.931 170.134 174.203 170.437C174.367 170.591 174.563 170.708 174.776 170.781C174.989 170.854 175.216 170.881 175.44 170.859C175.868 170.844 176.294 170.788 176.712 170.691C177.121 170.597 177.539 170.542 177.959 170.528C178.177 170.531 178.392 170.578 178.592 170.666C178.791 170.755 178.971 170.882 179.12 171.041C179.289 171.208 179.422 171.408 179.511 171.628C179.6 171.848 179.643 172.085 179.638 172.322C179.638 173.179 179.169 173.835 178.232 174.289C177.295 174.743 175.949 174.972 174.193 174.975C172.528 174.975 171.267 174.692 170.408 174.135C169.571 173.605 168.969 172.774 168.724 171.814C168.422 170.517 168.286 169.187 168.321 167.856V157.638H167.621C166.988 157.682 166.361 157.487 165.865 157.091C165.67 156.918 165.515 156.704 165.411 156.465C165.308 156.225 165.258 155.966 165.266 155.705C165.259 155.443 165.313 155.183 165.423 154.945C165.532 154.707 165.695 154.498 165.899 154.333C166.424 153.944 167.07 153.754 167.722 153.796V153.796Z" fill="#F15E22"/>
<path d="M159.639 55.1956C159.444 54.5168 159.117 53.883 158.677 53.3305C158.237 52.7779 157.693 52.3175 157.075 51.9754C156.457 51.6332 155.778 51.4162 155.076 51.3366C154.374 51.257 153.664 51.3164 152.985 51.5114C152.855 51.545 140.033 54.9509 133.091 47.5874C130.904 45.2608 128.433 41.8308 125.819 38.1706C118.858 28.4564 110.492 16.7899 98.7199 13.0049C99.6385 14.7614 99.9484 16.7729 99.6012 18.7244C99.2539 20.6759 98.2692 22.4571 96.8011 23.7888C104.635 27.0701 111.192 36.1942 117.093 44.4405C119.923 48.3885 122.595 52.1158 125.272 54.9653C131.465 61.547 139.663 63.1204 146.048 63.1204C149.393 63.1322 152.725 62.7162 155.964 61.8828C156.645 61.6865 157.281 61.3575 157.835 60.9148C158.389 60.472 158.85 59.9242 159.191 59.3028C159.532 58.6814 159.748 57.9987 159.825 57.2939C159.901 56.589 159.838 55.8759 159.639 55.1956V55.1956Z" fill="#F15E22"/>
<path d="M67.7737 8.07356C67.7747 9.67172 67.3016 11.2342 66.4143 12.5635C65.527 13.8927 64.2654 14.9288 62.7891 15.5409C61.3127 16.1529 59.6881 16.3133 58.1206 16.0017C56.5531 15.6902 55.1132 14.9207 53.9832 13.7906C52.8531 12.6605 52.0836 11.2207 51.772 9.65318C51.4605 8.08569 51.6209 6.46101 52.2329 4.98468C52.8449 3.50836 53.8811 2.24675 55.2103 1.35945C56.5395 0.472158 58.102 -0.000947317 59.7002 1.42412e-06C61.8411 0.00127234 63.8938 0.852281 65.4077 2.36609C66.9215 3.8799 67.7725 5.93271 67.7737 8.07356" fill="#293C74"/>
<path d="M90.7567 11.7385C91.4773 11.717 92.195 11.8403 92.8671 12.1013C93.5392 12.3622 94.1521 12.7554 94.6695 13.2575C95.1868 13.7597 95.5981 14.3606 95.879 15.0246C96.1599 15.6886 96.3046 16.4023 96.3046 17.1232C96.3046 17.8442 96.1599 18.5579 95.879 19.2219C95.5981 19.8859 95.1868 20.4868 94.6695 20.989C94.1521 21.4911 93.5392 21.8843 92.8671 22.1452C92.195 22.4062 91.4773 22.5295 90.7567 22.508C80.1646 22.508 71.8128 34.1506 64.4493 44.4261C61.619 48.3741 58.947 52.1014 56.2654 54.9509C50.0771 61.5326 41.874 63.106 35.4939 63.106C32.1494 63.1178 28.8172 62.7018 25.5782 61.8684C24.3403 61.5029 23.2747 60.7052 22.5754 59.6203C21.8761 58.5354 21.5895 57.2355 21.7679 55.9571C21.9463 54.6787 22.5778 53.5069 23.5474 52.6549C24.517 51.8028 25.7602 51.3273 27.0509 51.3147C27.5567 51.3082 28.0607 51.3744 28.5476 51.5114C30.8316 52.0625 33.1731 52.3395 35.5226 52.3365C39.6865 52.3365 44.8434 51.4107 48.4365 47.5874C50.6288 45.2607 53.0993 41.8308 55.7137 38.1706C64.147 26.3985 74.6479 11.7529 90.7711 11.7529" fill="#293C74"/>
<path d="M27.0558 22.5081C36.0936 22.5081 43.4955 30.9798 50.0436 39.8449C50.931 38.6456 51.8473 37.3695 52.7827 36.0647C54.0204 34.333 55.3108 32.5388 56.6588 30.7303C49.1561 21.0114 39.8689 11.7385 27.0558 11.7385C25.6555 11.7803 24.3265 12.366 23.3508 13.3713C22.3751 14.3765 21.8294 15.7224 21.8294 17.1233C21.8294 18.5242 22.3751 19.8701 23.3508 20.8753C24.3265 21.8806 25.6555 22.4663 27.0558 22.5081Z" fill="#293C74"/>
<path d="M89.2792 51.5114C89.1545 51.545 76.327 54.9509 69.3903 47.5873C68.9106 47.0597 68.3829 46.4744 67.8601 45.8412L67.3803 46.532C65.2984 49.4342 63.3028 52.2118 61.2928 54.6871L61.5614 54.9797C67.7497 61.5614 75.9528 63.1348 82.3378 63.1348C85.6822 63.146 89.0143 62.7301 92.2534 61.8971C92.9353 61.7019 93.5722 61.3742 94.1275 60.9328C94.6827 60.4914 95.1456 59.9449 95.4898 59.3246C95.8339 58.7044 96.0525 58.0223 96.133 57.3176C96.2135 56.6128 96.1545 55.8991 95.9592 55.2172C95.7639 54.5352 95.4362 53.8984 94.9948 53.3431C94.5534 52.7878 94.007 52.3249 93.3867 51.9808C92.7664 51.6367 92.0844 51.4181 91.3796 51.3376C90.6749 51.257 89.9611 51.3161 89.2792 51.5114Z" fill="#293C74"/>
</svg>
